<svg width="78" height="77" viewBox="0 0 78 77" fill="none" xmlns="http://www.w3.org/2000/svg">
<mask id="path-1-inside-1_146_632" fill="white">
<path fill-rule="evenodd" clip-rule="evenodd" d="M46.8791 9.56525C46.8619 9.58886 46.8238 9.94359 46.7944 10.3535C46.7112 11.5149 47.2761 12.2729 46.0544 13.3273C45.5522 13.7608 45.1488 14.1597 44.3536 14.4653C42.7517 15.0809 41.2421 15.0698 39.8507 14.6851C38.4593 14.3003 37.3929 12.8773 37.0093 12.3397C36.6258 11.802 36.4426 10.9767 36.3216 10.9674C36.0831 10.9491 36.2568 11.9626 36.341 12.1668C36.5509 12.6762 36.6817 13.1525 37.1824 13.8441C37.683 14.5356 38.6445 15.3092 39.2573 15.5199C39.3999 15.569 39.522 15.6043 39.6136 15.6308C39.8642 15.7034 39.8875 15.7101 39.4835 15.7523C38.4223 15.8632 37.5442 15.7611 36.9189 15.6363C34.1892 15.0423 32.7257 12.7168 32.3876 11.6563C32.0494 10.5957 32.3745 9.85766 32.0803 9.6977C31.8472 9.67983 31.5881 10.94 31.7817 11.8458C31.9753 12.7515 32.5307 14.225 33.9808 15.4372C34.3302 15.7293 35.3287 16.2834 35.6904 16.4223C35.8326 16.467 35.9572 16.5051 36.064 16.5377C36.3872 16.6364 36.5484 16.6856 36.5454 16.7208C36.5424 16.7558 36.3766 16.7768 36.0458 16.8189C35.9112 16.8359 35.7494 16.8565 35.5601 16.8829C35.3222 16.9221 34.8885 16.9496 34.5964 16.9439C32.5042 16.9798 31.431 15.5083 31.0693 15.1323C30.7076 14.7564 30.2963 13.9105 30.2124 13.9041C29.7873 13.8715 30.4803 15.5511 31.2327 16.4249C31.8215 17.1088 32.4999 17.5935 33.2991 17.9012C33.6619 18.041 33.8295 18.0753 34.3571 18.1178C35.0301 18.172 35.1868 18.1572 36.2123 17.942C36.579 17.8651 37.2136 17.7327 37.6225 17.6479C38.0314 17.563 38.5046 17.4623 38.6741 17.424C38.8435 17.3857 39.467 17.251 40.0594 17.1247C40.6519 16.9985 41.5879 16.7856 42.1393 16.6517C43.3643 16.3543 43.688 16.2951 43.9711 16.3169C44.4736 16.3554 43.974 16.6081 43.0452 16.7853C41.8971 17.0042 41.1464 17.4178 40.8201 18.011C40.589 18.4314 41.1669 18.6539 42.0739 18.7212C42.5186 18.7543 43.6193 18.6379 44.4159 17.7907C44.4159 17.7907 44.4218 18.3715 44.474 18.6782C44.4746 18.6816 44.4752 18.6851 44.4757 18.6887C44.4767 18.6945 44.4777 18.7005 44.4787 18.7068C44.4803 18.7165 44.482 18.7268 44.4837 18.7376C44.5413 19.0967 44.6896 20.0215 45.6452 21.2981C46.6829 22.6841 47.6223 23.2751 47.7617 24.4152C47.9247 25.7475 47.3589 27.0167 46.2959 27.7038C45.3502 28.3151 43.2033 28.8701 41.0501 29.0599C40.2106 29.134 38.6376 29.1818 37.7373 29.1607C33.5864 29.0633 32.3575 29.1917 30.4888 29.9179C30.0683 30.0813 29.8206 30.2157 29.5542 30.4251C29.3549 30.5818 29.1888 30.7492 29.1851 30.7971C29.1768 30.9052 29.3199 31.0594 29.6154 31.2608C29.7866 31.3774 29.9044 31.4842 29.974 31.598L29.9874 31.5929C30.275 32.3463 30.0486 33.097 29.5523 33.7569C29.5797 33.764 29.5537 33.7976 29.4823 33.8472C29.329 34.039 29.1533 34.2225 28.9614 34.3956C28.0832 35.1876 26.8306 35.7967 25.6822 36.0298C25.5616 36.0543 25.4416 36.0769 25.3222 36.0979C24.887 36.1835 24.4131 36.2442 23.8685 36.2844C23.4017 36.3245 22.9614 36.3457 22.5614 36.359C22.3386 36.3665 22.1281 36.3715 21.9328 36.376L21.8809 36.3772C21.7053 36.3812 21.5426 36.3849 21.3941 36.3898C21.0649 36.4006 20.8162 36.4169 20.6557 36.4513C20.4949 36.4858 20.207 36.5857 19.8569 36.7209C19.4811 36.888 18.7895 37.19 18.2314 37.4305C17.6143 37.6964 16.9488 37.9973 16.3802 38.2695C15.1309 38.8675 14.8157 38.979 13.3495 39.3412C12.7225 39.4961 12.1425 39.6572 12.0606 39.6991C11.6195 39.9252 11.4903 40.0234 11.3417 40.2452C11.2568 40.482 11.0805 40.4322 10.8909 40.3787C10.7841 40.3486 10.6732 40.3173 10.572 40.3353C10.572 40.3353 10.1719 40.354 9.94904 40.6953C9.36277 41.3504 8.7631 42.9003 9.25122 43.2152C9.99818 43.6972 11.3012 42.9642 12.1247 42.2498C12.761 41.6979 13.4314 41.1741 14.211 40.8229C15.0441 40.4477 16.1907 40.1295 17.3351 39.8118C18.4532 39.5015 19.5321 39.0705 20.2851 38.9618L22.5405 39.1739C23.5026 39.2539 24.2218 39.33 24.8287 39.3943L24.8289 39.3943C25.9345 39.5113 26.6672 39.5889 27.816 39.5784C30.9101 39.5503 33.0509 39.2521 34.4778 38.6505C35.2188 38.3381 35.6812 38.0394 36.0654 37.6249C36.8056 36.8263 37.3397 36.5101 38.1246 36.4057C38.6399 36.3371 39.012 36.3812 40.5039 36.6876C43.2383 37.2491 44.5171 37.3627 46.4295 37.2138C48.8187 37.0278 51.774 36.2065 53.7121 35.1899C53.9506 35.0648 54.1471 34.946 54.1486 34.926C54.5896 34.6686 54.7439 34.63 56.0699 35.5349C56.1627 35.5915 56.3814 35.6998 56.556 35.7756L56.8734 35.9134L57.165 35.8273C57.3253 35.7799 57.5679 35.6574 57.704 35.5549C58.5669 34.9054 60.0525 32.908 61.5625 30.367C62.148 29.3819 62.2251 29.3049 62.4509 29.48C62.4813 29.5036 62.638 29.6589 62.8294 29.8524L62.8307 29.8509L64.4714 31.5365L64.47 31.5378C64.6287 31.7 64.8161 31.9043 64.9873 32.1053C65.7466 32.9969 66.4101 33.9688 66.6869 34.595C66.7745 34.793 66.9052 34.8706 67.0203 34.9389C67.1359 35.0075 67.2358 35.0668 67.2602 35.2295C67.2602 35.2295 67.3338 35.3621 67.2347 35.5625C67.2229 35.5863 67.1956 35.6215 67.1602 35.6671C67.1012 35.743 67.02 35.8476 66.9523 35.9748C66.6872 36.4727 66.6153 36.8673 66.7345 37.1705C66.8749 37.5279 67.6174 38.7027 67.779 38.8233C67.9073 38.919 67.9421 38.9255 68.0564 38.8751C68.2336 38.7971 68.5312 38.4402 68.6668 38.1432C68.7576 37.9441 68.7884 37.7568 68.8347 37.1217C68.9246 35.8863 68.8312 35.1967 68.4441 34.2407C68.1791 33.5863 68.0466 33.3703 67.4639 32.6438C66.8023 31.8189 65.7285 30.44 64.5455 28.8959L64.5114 28.8514L64.5063 28.8556C64.4086 28.7365 64.3088 28.6093 64.2061 28.4782L64.2056 28.4776C64.0339 28.2587 63.8539 28.0292 63.6621 27.8097C63.3567 27.4605 63.0415 27.1616 62.725 27.0083C62.5534 26.9253 62.2084 26.8159 61.7441 26.9363C61.3087 27.0492 60.7539 27.3679 60.1309 28.1292C60.1164 28.1471 60.102 28.1649 60.0877 28.1825C60.0597 28.2175 60.0315 28.2534 60.0032 28.2902L60.001 28.2886C59.6185 28.7538 59.2694 29.1378 58.718 29.7105C58.0321 30.4229 57.7017 30.7174 57.5973 30.7094C57.5158 30.7032 57.6033 30.0547 57.6575 29.6525C57.6728 29.5398 57.6854 29.4463 57.6909 29.3919C57.817 28.1516 57.7549 27.2731 57.4657 26.2022C57.0542 24.6788 55.5244 23.2819 54.1712 21.8969C53.4698 21.179 52.8471 20.6265 51.4621 19.4929C50.4477 18.6628 50.2135 18.4033 50.2135 18.4033C50.5655 18.2874 50.6859 18.2088 51.3452 17.6637C52.168 16.9833 52.2259 16.92 52.8917 16.7462C53.7813 16.5139 54.0049 16.3595 53.9559 16.0112C53.9296 15.8238 53.844 15.777 53.6829 15.8618C53.5295 15.9426 53.1759 16.0276 53.1448 15.9913C53.132 15.9763 53.2645 15.9013 53.4394 15.8247C53.6142 15.748 53.8453 15.6017 53.9528 15.4996C54.1392 15.3227 54.1484 15.3 54.1496 15.017C54.1505 14.8233 54.1189 14.6695 54.059 14.5749C53.9245 14.3623 53.5048 14.1168 53.2416 14.0966C53.121 14.0873 52.5673 14.1609 52.0111 14.2601C50.0086 14.6172 49.5703 14.6147 49.1347 14.4089C48.9376 14.3159 48.8964 14.3127 48.5257 14.3631C48.1382 14.4158 47.3724 14.6363 46.6379 14.9067C46.1491 15.0866 45.8871 15.1562 45.891 15.1051C45.8928 15.0819 46.0664 14.9429 46.2768 14.7964C46.9987 14.2935 47.5567 13.5806 47.7278 12.9426C47.9358 12.1671 47.4579 10.0888 47.1099 9.62594C47.0335 9.52436 46.929 9.49687 46.8791 9.56525ZM18.6496 36.9429C19.0229 36.7842 19.4154 36.6219 19.7589 36.4891C20.1099 36.3534 20.4186 36.2449 20.6029 36.2054C20.7888 36.1654 21.0598 36.149 21.3859 36.1384C21.5357 36.1334 21.6996 36.1297 21.875 36.1257L21.927 36.1245C22.1223 36.12 22.3316 36.115 22.553 36.1076C23.4388 36.0781 24.5146 36.0101 25.6321 35.7833C26.739 35.5586 27.95 34.9689 28.7929 34.2088C29.3701 33.6883 29.7586 33.1046 29.8439 32.5131C29.5951 32.9943 29.2147 33.4079 28.611 33.8605C27.243 34.8859 25.7424 35.4308 24.5383 35.3393C23.9478 35.2945 23.5985 35.1891 22.8731 34.8367C22.0288 34.4266 21.8726 34.3892 21.4483 34.4959C20.9595 34.6188 19.8663 34.9578 18.4094 35.438C15.8871 36.1295 15.287 36.1504 13.8659 36.2731C13.4553 36.2676 13.0655 36.2861 12.9995 36.3142C12.9337 36.3423 12.7351 36.5881 12.5569 36.7334C12.3562 36.897 12.1601 36.7684 11.9505 36.7417C11.689 36.7085 11.4046 36.6723 11.0576 36.9959C10.4326 37.5787 9.74432 38.6586 10.215 39.1009C10.6857 39.5431 11.8896 39.0642 12.4877 38.7455C13.2079 38.3617 14.3025 37.9496 14.3025 37.9496C15.0904 37.674 15.8994 37.5117 16.7083 37.3494C17.4628 37.1981 17.9127 37.1861 18.6496 36.9429ZM64.4574 28.1267L64.4405 28.3694L64.4119 28.3329C64.2362 28.1091 64.0465 27.8672 63.8515 27.6442C63.5421 27.2903 63.1992 26.9584 62.8346 26.7819C62.622 26.679 62.2154 26.5542 61.681 26.6928C61.4952 26.7409 61.296 26.8204 61.0858 26.9418C61.5481 26.4052 61.8107 26.215 62.1813 26.0785C62.4222 25.9898 62.5172 25.9814 62.7971 26.0236C63.3789 26.1115 64.053 26.5625 64.271 27.0096C64.4034 27.2813 64.483 27.7581 64.4574 28.1267ZM64.0458 31.4488L62.7441 30.1234C62.7105 30.2585 62.6415 30.6038 62.5702 30.999C62.2668 32.6808 62.2243 32.826 61.8163 33.5721C61.6582 33.8613 61.5238 34.1628 61.5177 34.242C61.5055 34.401 61.4826 34.6673 61.2923 34.7789C61.1602 34.8563 60.899 34.7858 60.899 34.7858C60.7285 34.7394 60.343 34.8223 60.1002 34.9575C59.8327 35.1065 59.729 35.2949 59.392 36.2445C59.0914 37.0918 59.0762 37.1994 59.2397 37.3254C59.4118 37.458 60.0183 37.4543 60.3856 37.3184C60.8866 37.133 62.043 36.2576 62.5164 35.7053C62.8329 35.3359 63.2475 34.6514 63.4533 34.1583C63.5809 33.8527 63.6691 33.4815 63.8476 32.4983C63.9258 32.0677 63.9988 31.6824 64.0458 31.4488ZM48.0586 15.2663C47.9392 15.3395 47.8109 15.4489 47.7735 15.5094C47.7438 15.5573 47.7292 15.5827 47.7365 15.5849C47.7181 15.6291 47.7028 15.6912 47.7262 15.7487C47.7516 15.8109 47.7886 15.838 47.8144 15.8497C47.8323 15.8747 47.9543 15.9092 48.1491 15.9271C48.4194 15.9518 48.6919 15.8292 48.7793 15.6435C48.808 15.5824 48.8223 15.5302 48.825 15.495C48.8386 15.4564 48.8508 15.408 48.8393 15.3799C48.8278 15.3517 48.8016 15.3223 48.78 15.3013C48.7792 15.2929 48.7525 15.2738 48.7062 15.2423C48.5141 15.1114 48.298 15.1194 48.0586 15.2663Z"/>
</mask>
<path fill-rule="evenodd" clip-rule="evenodd" d="M46.8791 9.56525C46.8619 9.58886 46.8238 9.94359 46.7944 10.3535C46.7112 11.5149 47.2761 12.2729 46.0544 13.3273C45.5522 13.7608 45.1488 14.1597 44.3536 14.4653C42.7517 15.0809 41.2421 15.0698 39.8507 14.6851C38.4593 14.3003 37.3929 12.8773 37.0093 12.3397C36.6258 11.802 36.4426 10.9767 36.3216 10.9674C36.0831 10.9491 36.2568 11.9626 36.341 12.1668C36.5509 12.6762 36.6817 13.1525 37.1824 13.8441C37.683 14.5356 38.6445 15.3092 39.2573 15.5199C39.3999 15.569 39.522 15.6043 39.6136 15.6308C39.8642 15.7034 39.8875 15.7101 39.4835 15.7523C38.4223 15.8632 37.5442 15.7611 36.9189 15.6363C34.1892 15.0423 32.7257 12.7168 32.3876 11.6563C32.0494 10.5957 32.3745 9.85766 32.0803 9.6977C31.8472 9.67983 31.5881 10.94 31.7817 11.8458C31.9753 12.7515 32.5307 14.225 33.9808 15.4372C34.3302 15.7293 35.3287 16.2834 35.6904 16.4223C35.8326 16.467 35.9572 16.5051 36.064 16.5377C36.3872 16.6364 36.5484 16.6856 36.5454 16.7208C36.5424 16.7558 36.3766 16.7768 36.0458 16.8189C35.9112 16.8359 35.7494 16.8565 35.5601 16.8829C35.3222 16.9221 34.8885 16.9496 34.5964 16.9439C32.5042 16.9798 31.431 15.5083 31.0693 15.1323C30.7076 14.7564 30.2963 13.9105 30.2124 13.9041C29.7873 13.8715 30.4803 15.5511 31.2327 16.4249C31.8215 17.1088 32.4999 17.5935 33.2991 17.9012C33.6619 18.041 33.8295 18.0753 34.3571 18.1178C35.0301 18.172 35.1868 18.1572 36.2123 17.942C36.579 17.8651 37.2136 17.7327 37.6225 17.6479C38.0314 17.563 38.5046 17.4623 38.6741 17.424C38.8435 17.3857 39.467 17.251 40.0594 17.1247C40.6519 16.9985 41.5879 16.7856 42.1393 16.6517C43.3643 16.3543 43.688 16.2951 43.9711 16.3169C44.4736 16.3554 43.974 16.6081 43.0452 16.7853C41.8971 17.0042 41.1464 17.4178 40.8201 18.011C40.589 18.4314 41.1669 18.6539 42.0739 18.7212C42.5186 18.7543 43.6193 18.6379 44.4159 17.7907C44.4159 17.7907 44.4218 18.3715 44.474 18.6782C44.4746 18.6816 44.4752 18.6851 44.4757 18.6887C44.4767 18.6945 44.4777 18.7005 44.4787 18.7068C44.4803 18.7165 44.482 18.7268 44.4837 18.7376C44.5413 19.0967 44.6896 20.0215 45.6452 21.2981C46.6829 22.6841 47.6223 23.2751 47.7617 24.4152C47.9247 25.7475 47.3589 27.0167 46.2959 27.7038C45.3502 28.3151 43.2033 28.8701 41.0501 29.0599C40.2106 29.134 38.6376 29.1818 37.7373 29.1607C33.5864 29.0633 32.3575 29.1917 30.4888 29.9179C30.0683 30.0813 29.8206 30.2157 29.5542 30.4251C29.3549 30.5818 29.1888 30.7492 29.1851 30.7971C29.1768 30.9052 29.3199 31.0594 29.6154 31.2608C29.7866 31.3774 29.9044 31.4842 29.974 31.598L29.9874 31.5929C30.275 32.3463 30.0486 33.097 29.5523 33.7569C29.5797 33.764 29.5537 33.7976 29.4823 33.8472C29.329 34.039 29.1533 34.2225 28.9614 34.3956C28.0832 35.1876 26.8306 35.7967 25.6822 36.0298C25.5616 36.0543 25.4416 36.0769 25.3222 36.0979C24.887 36.1835 24.4131 36.2442 23.8685 36.2844C23.4017 36.3245 22.9614 36.3457 22.5614 36.359C22.3386 36.3665 22.1281 36.3715 21.9328 36.376L21.8809 36.3772C21.7053 36.3812 21.5426 36.3849 21.3941 36.3898C21.0649 36.4006 20.8162 36.4169 20.6557 36.4513C20.4949 36.4858 20.207 36.5857 19.8569 36.7209C19.4811 36.888 18.7895 37.19 18.2314 37.4305C17.6143 37.6964 16.9488 37.9973 16.3802 38.2695C15.1309 38.8675 14.8157 38.979 13.3495 39.3412C12.7225 39.4961 12.1425 39.6572 12.0606 39.6991C11.6195 39.9252 11.4903 40.0234 11.3417 40.2452C11.2568 40.482 11.0805 40.4322 10.8909 40.3787C10.7841 40.3486 10.6732 40.3173 10.572 40.3353C10.572 40.3353 10.1719 40.354 9.94904 40.6953C9.36277 41.3504 8.7631 42.9003 9.25122 43.2152C9.99818 43.6972 11.3012 42.9642 12.1247 42.2498C12.761 41.6979 13.4314 41.1741 14.211 40.8229C15.0441 40.4477 16.1907 40.1295 17.3351 39.8118C18.4532 39.5015 19.5321 39.0705 20.2851 38.9618L22.5405 39.1739C23.5026 39.2539 24.2218 39.33 24.8287 39.3943L24.8289 39.3943C25.9345 39.5113 26.6672 39.5889 27.816 39.5784C30.9101 39.5503 33.0509 39.2521 34.4778 38.6505C35.2188 38.3381 35.6812 38.0394 36.0654 37.6249C36.8056 36.8263 37.3397 36.5101 38.1246 36.4057C38.6399 36.3371 39.012 36.3812 40.5039 36.6876C43.2383 37.2491 44.5171 37.3627 46.4295 37.2138C48.8187 37.0278 51.774 36.2065 53.7121 35.1899C53.9506 35.0648 54.1471 34.946 54.1486 34.926C54.5896 34.6686 54.7439 34.63 56.0699 35.5349C56.1627 35.5915 56.3814 35.6998 56.556 35.7756L56.8734 35.9134L57.165 35.8273C57.3253 35.7799 57.5679 35.6574 57.704 35.5549C58.5669 34.9054 60.0525 32.908 61.5625 30.367C62.148 29.3819 62.2251 29.3049 62.4509 29.48C62.4813 29.5036 62.638 29.6589 62.8294 29.8524L62.8307 29.8509L64.4714 31.5365L64.47 31.5378C64.6287 31.7 64.8161 31.9043 64.9873 32.1053C65.7466 32.9969 66.4101 33.9688 66.6869 34.595C66.7745 34.793 66.9052 34.8706 67.0203 34.9389C67.1359 35.0075 67.2358 35.0668 67.2602 35.2295C67.2602 35.2295 67.3338 35.3621 67.2347 35.5625C67.2229 35.5863 67.1956 35.6215 67.1602 35.6671C67.1012 35.743 67.02 35.8476 66.9523 35.9748C66.6872 36.4727 66.6153 36.8673 66.7345 37.1705C66.8749 37.5279 67.6174 38.7027 67.779 38.8233C67.9073 38.919 67.9421 38.9255 68.0564 38.8751C68.2336 38.7971 68.5312 38.4402 68.6668 38.1432C68.7576 37.9441 68.7884 37.7568 68.8347 37.1217C68.9246 35.8863 68.8312 35.1967 68.4441 34.2407C68.1791 33.5863 68.0466 33.3703 67.4639 32.6438C66.8023 31.8189 65.7285 30.44 64.5455 28.8959L64.5114 28.8514L64.5063 28.8556C64.4086 28.7365 64.3088 28.6093 64.2061 28.4782L64.2056 28.4776C64.0339 28.2587 63.8539 28.0292 63.6621 27.8097C63.3567 27.4605 63.0415 27.1616 62.725 27.0083C62.5534 26.9253 62.2084 26.8159 61.7441 26.9363C61.3087 27.0492 60.7539 27.3679 60.1309 28.1292C60.1164 28.1471 60.102 28.1649 60.0877 28.1825C60.0597 28.2175 60.0315 28.2534 60.0032 28.2902L60.001 28.2886C59.6185 28.7538 59.2694 29.1378 58.718 29.7105C58.0321 30.4229 57.7017 30.7174 57.5973 30.7094C57.5158 30.7032 57.6033 30.0547 57.6575 29.6525C57.6728 29.5398 57.6854 29.4463 57.6909 29.3919C57.817 28.1516 57.7549 27.2731 57.4657 26.2022C57.0542 24.6788 55.5244 23.2819 54.1712 21.8969C53.4698 21.179 52.8471 20.6265 51.4621 19.4929C50.4477 18.6628 50.2135 18.4033 50.2135 18.4033C50.5655 18.2874 50.6859 18.2088 51.3452 17.6637C52.168 16.9833 52.2259 16.92 52.8917 16.7462C53.7813 16.5139 54.0049 16.3595 53.9559 16.0112C53.9296 15.8238 53.844 15.777 53.6829 15.8618C53.5295 15.9426 53.1759 16.0276 53.1448 15.9913C53.132 15.9763 53.2645 15.9013 53.4394 15.8247C53.6142 15.748 53.8453 15.6017 53.9528 15.4996C54.1392 15.3227 54.1484 15.3 54.1496 15.017C54.1505 14.8233 54.1189 14.6695 54.059 14.5749C53.9245 14.3623 53.5048 14.1168 53.2416 14.0966C53.121 14.0873 52.5673 14.1609 52.0111 14.2601C50.0086 14.6172 49.5703 14.6147 49.1347 14.4089C48.9376 14.3159 48.8964 14.3127 48.5257 14.3631C48.1382 14.4158 47.3724 14.6363 46.6379 14.9067C46.1491 15.0866 45.8871 15.1562 45.891 15.1051C45.8928 15.0819 46.0664 14.9429 46.2768 14.7964C46.9987 14.2935 47.5567 13.5806 47.7278 12.9426C47.9358 12.1671 47.4579 10.0888 47.1099 9.62594C47.0335 9.52436 46.929 9.49687 46.8791 9.56525ZM18.6496 36.9429C19.0229 36.7842 19.4154 36.6219 19.7589 36.4891C20.1099 36.3534 20.4186 36.2449 20.6029 36.2054C20.7888 36.1654 21.0598 36.149 21.3859 36.1384C21.5357 36.1334 21.6996 36.1297 21.875 36.1257L21.927 36.1245C22.1223 36.12 22.3316 36.115 22.553 36.1076C23.4388 36.0781 24.5146 36.0101 25.6321 35.7833C26.739 35.5586 27.95 34.9689 28.7929 34.2088C29.3701 33.6883 29.7586 33.1046 29.8439 32.5131C29.5951 32.9943 29.2147 33.4079 28.611 33.8605C27.243 34.8859 25.7424 35.4308 24.5383 35.3393C23.9478 35.2945 23.5985 35.1891 22.8731 34.8367C22.0288 34.4266 21.8726 34.3892 21.4483 34.4959C20.9595 34.6188 19.8663 34.9578 18.4094 35.438C15.8871 36.1295 15.287 36.1504 13.8659 36.2731C13.4553 36.2676 13.0655 36.2861 12.9995 36.3142C12.9337 36.3423 12.7351 36.5881 12.5569 36.7334C12.3562 36.897 12.1601 36.7684 11.9505 36.7417C11.689 36.7085 11.4046 36.6723 11.0576 36.9959C10.4326 37.5787 9.74432 38.6586 10.215 39.1009C10.6857 39.5431 11.8896 39.0642 12.4877 38.7455C13.2079 38.3617 14.3025 37.9496 14.3025 37.9496C15.0904 37.674 15.8994 37.5117 16.7083 37.3494C17.4628 37.1981 17.9127 37.1861 18.6496 36.9429ZM64.4574 28.1267L64.4405 28.3694L64.4119 28.3329C64.2362 28.1091 64.0465 27.8672 63.8515 27.6442C63.5421 27.2903 63.1992 26.9584 62.8346 26.7819C62.622 26.679 62.2154 26.5542 61.681 26.6928C61.4952 26.7409 61.296 26.8204 61.0858 26.9418C61.5481 26.4052 61.8107 26.215 62.1813 26.0785C62.4222 25.9898 62.5172 25.9814 62.7971 26.0236C63.3789 26.1115 64.053 26.5625 64.271 27.0096C64.4034 27.2813 64.483 27.7581 64.4574 28.1267ZM64.0458 31.4488L62.7441 30.1234C62.7105 30.2585 62.6415 30.6038 62.5702 30.999C62.2668 32.6808 62.2243 32.826 61.8163 33.5721C61.6582 33.8613 61.5238 34.1628 61.5177 34.242C61.5055 34.401 61.4826 34.6673 61.2923 34.7789C61.1602 34.8563 60.899 34.7858 60.899 34.7858C60.7285 34.7394 60.343 34.8223 60.1002 34.9575C59.8327 35.1065 59.729 35.2949 59.392 36.2445C59.0914 37.0918 59.0762 37.1994 59.2397 37.3254C59.4118 37.458 60.0183 37.4543 60.3856 37.3184C60.8866 37.133 62.043 36.2576 62.5164 35.7053C62.8329 35.3359 63.2475 34.6514 63.4533 34.1583C63.5809 33.8527 63.6691 33.4815 63.8476 32.4983C63.9258 32.0677 63.9988 31.6824 64.0458 31.4488ZM48.0586 15.2663C47.9392 15.3395 47.8109 15.4489 47.7735 15.5094C47.7438 15.5573 47.7292 15.5827 47.7365 15.5849C47.7181 15.6291 47.7028 15.6912 47.7262 15.7487C47.7516 15.8109 47.7886 15.838 47.8144 15.8497C47.8323 15.8747 47.9543 15.9092 48.1491 15.9271C48.4194 15.9518 48.6919 15.8292 48.7793 15.6435C48.808 15.5824 48.8223 15.5302 48.825 15.495C48.8386 15.4564 48.8508 15.408 48.8393 15.3799C48.8278 15.3517 48.8016 15.3223 48.78 15.3013C48.7792 15.2929 48.7525 15.2738 48.7062 15.2423C48.5141 15.1114 48.298 15.1194 48.0586 15.2663Z" fill="#481E06" stroke="#F5F4F2" stroke-width="0.128934" mask="url(#path-1-inside-1_146_632)"/>
<path d="M17.9493 12.023L17.9496 12.0228C24.6331 7.15042 31.7388 3.25354 39.0356 0.209633C46.2801 3.25359 53.3858 7.16927 60.0362 11.9895C66.7064 16.8435 72.6466 22.3607 77.8004 28.3805C77.1296 36.2414 75.7184 44.1278 73.171 51.9841C70.5846 59.8433 67.169 67.2142 63.066 74.0119C55.3811 75.8222 47.3462 76.7982 39.1075 76.7982C30.8677 76.7982 22.7663 75.8742 15.0631 74.0313C10.9791 67.2859 7.56385 59.9534 5.01095 52.0951C2.47651 44.2493 0.833474 36.2722 0.199204 28.3622C5.37225 22.3609 11.3126 16.8437 17.9493 12.023ZM61.3722 71.8039L61.4542 71.7858L61.4969 71.7135C65.2605 65.3452 68.3727 58.5077 70.7619 51.1918L70.762 51.1915C73.1181 43.9267 74.5257 36.6103 75.2294 29.3481L75.2375 29.2649L75.1824 29.202C70.3127 23.6428 64.7726 18.5432 58.5431 14.0231L58.543 14.023C52.3518 9.53644 45.8112 5.864 39.0938 2.9434L39.0172 2.91007L38.9404 2.94308C32.1888 5.84483 25.6431 9.53666 19.4375 14.0568C13.2466 18.5576 7.745 23.6042 2.90421 29.0771L2.84893 29.1396L2.85647 29.2227C3.52688 36.6116 5.05439 44.0141 7.41468 51.3296C9.75642 58.6134 12.9025 65.3985 16.613 71.6753L16.6556 71.7473L16.7371 71.7656C23.9478 73.3839 31.4413 74.265 39.1075 74.265C46.7737 74.265 54.2336 73.3839 61.3722 71.8039Z" fill="#481E06" stroke="#F5F4F2" stroke-width="0.386801"/>
<path d="M25.5215 54.9825C25.5215 54.376 25.5215 53.7927 25.5215 53.2328C25.5215 52.6677 25.5215 52.0404 25.5215 51.3509V48.2791C25.5215 47.5689 25.5215 46.926 25.5215 46.3505C25.5215 45.7751 25.5215 45.1814 25.5215 44.5697L26.198 46.0628H20.8633L21.9442 44.6941C21.9028 45.3629 21.8613 46.0369 21.8198 46.716C21.7783 47.3952 21.7369 48.0717 21.6954 48.7457C21.6435 49.57 21.5658 50.2829 21.4621 50.8843C21.3584 51.4857 21.2055 52.0145 21.0033 52.4707C20.8063 52.9217 20.5444 53.3443 20.2178 53.7383L18.1415 53.5283C18.4163 53.2535 18.6625 52.8984 18.8803 52.4629C19.098 52.0274 19.2795 51.4727 19.4246 50.7987C19.575 50.1196 19.6787 49.2875 19.7357 48.3025C19.7772 47.587 19.8186 46.8871 19.8601 46.2028C19.9068 45.5184 19.9482 44.8626 19.9845 44.2353H27.6989C27.6989 44.8471 27.6989 45.4407 27.6989 46.0161C27.6989 46.5916 27.6989 47.2345 27.6989 47.9447V51.3509C27.6989 52.0404 27.6989 52.6677 27.6989 53.2328C27.6989 53.7927 27.6989 54.376 27.6989 54.9825H25.5215ZM17.2238 57.6966C17.2238 57.3544 17.2238 57.0122 17.2238 56.6701C17.2238 56.3279 17.2238 55.9857 17.2238 55.6435C17.2238 55.291 17.2238 54.9333 17.2238 54.5704C17.2238 54.2075 17.2238 53.8497 17.2238 53.4972C17.9134 53.4972 18.6081 53.4972 19.308 53.4972C20.013 53.4972 20.6974 53.4972 21.361 53.4972H24.9849C25.6537 53.4972 26.338 53.4972 27.0379 53.4972C27.743 53.4972 28.4377 53.4972 29.122 53.4972C29.122 53.8497 29.122 54.2075 29.122 54.5704C29.122 54.9333 29.122 55.291 29.122 55.6435C29.122 55.9857 29.122 56.3279 29.122 56.6701C29.122 57.0122 29.122 57.3544 29.122 57.6966H27.2945L27.1701 54.9825L27.5823 55.3247H18.7636L19.1758 54.9825L19.0591 57.6966H17.2238ZM29.8892 55.3247C29.8892 54.7233 29.8892 54.1401 29.8892 53.575C29.8892 53.0099 29.8892 52.3826 29.8892 51.693V47.9447C29.8892 47.2345 29.8892 46.5916 29.8892 46.0161C29.8892 45.4407 29.8892 44.8471 29.8892 44.2353H32.02C32.02 44.8471 32.02 45.4433 32.02 46.0239C32.02 46.5994 32.02 47.2448 32.02 47.9603V51.6853H32.1755L34.1741 48.7846C34.677 48.0588 35.1851 47.3226 35.6983 46.576C36.2168 45.8295 36.756 45.0492 37.3159 44.2353H39.1667C39.1667 44.8471 39.1667 45.4407 39.1667 46.0161C39.1667 46.5916 39.1667 47.2345 39.1667 47.9447V51.693C39.1667 52.3826 39.1667 53.0099 39.1667 53.575C39.1667 54.1401 39.1667 54.7233 39.1667 55.3247H37.0359C37.0359 54.7181 37.0359 54.1323 37.0359 53.5672C37.0359 53.0021 37.0359 52.3748 37.0359 51.6853V47.867H36.8882L34.874 50.7676C34.2623 51.649 33.6998 52.4577 33.1865 53.1939C32.6784 53.9301 32.1911 54.6404 31.7245 55.3247H29.8892ZM45.9938 55.5191C45.014 55.5191 44.1611 55.3662 43.4353 55.0603C42.7147 54.7544 42.1185 54.3345 41.6467 53.8005C41.1801 53.2665 40.8302 52.6547 40.5969 51.9652C40.3687 51.2757 40.2547 50.5473 40.2547 49.78C40.2547 48.7068 40.4698 47.7348 40.9001 46.8638C41.3304 45.9876 41.9655 45.2955 42.8054 44.7874C43.6505 44.2742 44.6925 44.0176 45.9316 44.0176C46.8752 44.0176 47.7021 44.1653 48.4123 44.4608C49.1226 44.7563 49.7162 45.1685 50.1932 45.6973C50.6701 46.2261 51.0279 46.8379 51.2663 47.5326C51.5048 48.2273 51.6241 48.9738 51.6241 49.7722C51.6241 50.8713 51.4063 51.8538 50.9708 52.7196C50.5353 53.5853 49.8977 54.2697 49.0578 54.7726C48.2179 55.2703 47.1966 55.5191 45.9938 55.5191ZM45.9549 53.7072C46.5356 53.7072 47.0385 53.6035 47.4636 53.3961C47.8887 53.1836 48.2412 52.8932 48.5212 52.5251C48.8063 52.1519 49.0163 51.7293 49.1511 51.2576C49.2911 50.7858 49.3611 50.2907 49.3611 49.7722C49.3611 49.2175 49.2859 48.7016 49.1355 48.2247C48.9852 47.7477 48.7649 47.3304 48.4745 46.9727C48.1894 46.6097 47.8343 46.3298 47.4091 46.1328C46.9892 45.9306 46.5045 45.8295 45.9549 45.8295C45.3898 45.8295 44.8921 45.9332 44.4618 46.1406C44.0315 46.3479 43.6712 46.6357 43.3809 47.0038C43.0957 47.3719 42.8806 47.7944 42.7354 48.2713C42.5903 48.7431 42.5177 49.2434 42.5177 49.7722C42.5177 50.301 42.5877 50.8013 42.7276 51.2731C42.8676 51.7449 43.0802 52.1648 43.3653 52.5329C43.6505 52.901 44.0082 53.1887 44.4385 53.3961C44.8688 53.6035 45.3743 53.7072 45.9549 53.7072ZM52.7117 55.3247C52.7117 54.7233 52.7117 54.1401 52.7117 53.575C52.7117 53.0099 52.7117 52.3826 52.7117 51.693V47.937C52.7117 47.2319 52.7117 46.5916 52.7117 46.0161C52.7117 45.4407 52.7117 44.8471 52.7117 44.2353C53.1524 44.2353 53.7356 44.2353 54.4614 44.2353C55.1924 44.2353 56.0323 44.2353 56.981 44.2353C57.8624 44.2353 58.596 44.3468 59.1818 44.5697C59.7676 44.7926 60.2083 45.1529 60.5038 45.6506C60.7993 46.1432 60.9471 46.8016 60.9471 47.6259C60.9471 48.3361 60.8175 48.9661 60.5583 49.5156C60.299 50.06 59.8791 50.4877 59.2985 50.7987C58.7178 51.1046 57.9375 51.2576 56.9577 51.2576C56.7088 51.2576 56.4367 51.2576 56.1412 51.2576C55.8508 51.2576 55.5657 51.2576 55.2857 51.2576C55.011 51.2576 54.7751 51.2576 54.5781 51.2576V49.5389H56.4833C57.0018 49.5389 57.4269 49.4741 57.7587 49.3445C58.0905 49.2149 58.3342 49.0127 58.4897 48.7379C58.6504 48.458 58.7308 48.0951 58.7308 47.6492C58.7308 47.2863 58.6737 46.996 58.5597 46.7782C58.4456 46.5553 58.2953 46.3868 58.1086 46.2728C57.922 46.1587 57.7172 46.0809 57.4943 46.0395C57.2714 45.998 57.051 45.9773 56.8333 45.9773H53.8082L54.858 44.5697C54.858 45.1814 54.858 45.7777 54.858 46.3583C54.858 46.9338 54.858 47.574 54.858 48.2791V51.693C54.858 52.3826 54.858 53.0099 54.858 53.575C54.858 54.1401 54.858 54.7233 54.858 55.3247H52.7117Z" fill="#481E06"/>
<path d="M26.2695 71.0518C26.2695 70.588 26.2695 70.1416 26.2695 69.7125C26.2695 69.2835 26.2695 68.8159 26.2695 68.3096V65.5442C26.2695 65.0301 26.2695 64.5586 26.2695 64.1296C26.2695 63.6967 26.2695 63.2484 26.2695 62.7846C26.6212 62.7846 26.9498 62.7846 27.2551 62.7846C27.5643 62.7846 27.8658 62.7846 28.1595 62.7846C28.4532 62.7846 28.7547 62.7846 29.0639 62.7846C29.7055 62.7846 30.2736 62.8773 30.7684 63.0628C31.2631 63.2445 31.6805 63.5131 32.0206 63.8687C32.3607 64.2243 32.6178 64.6552 32.7917 65.1615C32.9695 65.664 33.0584 66.2379 33.0584 66.8834C33.0584 67.467 32.9791 68.0119 32.8207 68.5183C32.6661 69.0207 32.4206 69.4613 32.0844 69.8401C31.752 70.2189 31.3133 70.5165 30.7684 70.7329C30.2273 70.9455 29.5664 71.0518 28.7856 71.0518C28.4648 71.0518 28.1692 71.0518 27.8986 71.0518C27.6281 71.0518 27.3614 71.0518 27.0986 71.0518C26.8396 71.0518 26.5633 71.0518 26.2695 71.0518ZM27.087 70.3561H28.7972C29.6398 70.3561 30.3104 70.2034 30.8089 69.8981C31.3075 69.5927 31.665 69.1772 31.8815 68.6516C32.1018 68.126 32.2119 67.5308 32.2119 66.866C32.2119 66.3519 32.1462 65.8881 32.0148 65.4746C31.8873 65.0572 31.6902 64.6997 31.4235 64.4021C31.1568 64.1044 30.8167 63.8764 30.4031 63.7179C29.9896 63.5595 29.4987 63.4803 28.9306 63.4803H27.087C27.087 63.8358 27.087 64.1875 27.087 64.5354C27.087 64.8832 27.087 65.2639 27.087 65.6775V68.1762C27.087 68.582 27.087 68.9589 27.087 69.3067C27.087 69.6546 27.087 70.0043 27.087 70.3561ZM34.2388 71.0518C34.2388 70.588 34.2388 70.1416 34.2388 69.7125C34.2388 69.2835 34.2388 68.8159 34.2388 68.3096V65.5442C34.2388 65.0301 34.2388 64.5586 34.2388 64.1296C34.2388 63.6967 34.2388 63.2484 34.2388 62.7846H39.2768V63.4976C38.8826 63.4976 38.4594 63.4976 38.0071 63.4976C37.5549 63.4976 37.0235 63.4976 36.4128 63.4976H34.5982L35.0388 62.8947C35.0388 63.3585 35.0388 63.8068 35.0388 64.2397C35.0388 64.6726 35.0388 65.1441 35.0388 65.6543V68.1936C35.0388 68.696 35.0388 69.1618 35.0388 69.5908C35.0388 70.0198 35.0388 70.4662 35.0388 70.93L34.633 70.3387H36.4824C37.0042 70.3387 37.495 70.3387 37.955 70.3387C38.4149 70.3387 38.8574 70.3387 39.2826 70.3387V71.0518H34.2388ZM34.8649 67.2022V66.5123H36.4998C37.0409 66.5123 37.5066 66.5123 37.897 66.5123C38.2912 66.5123 38.67 66.5123 39.0333 66.5123V67.2022C38.6507 67.2022 38.2622 67.2022 37.868 67.2022C37.4776 67.2022 37.0177 67.2022 36.4882 67.2022H34.8649ZM40.5322 71.0518C40.5322 70.588 40.5322 70.1416 40.5322 69.7125C40.5322 69.2835 40.5322 68.8159 40.5322 68.3096V65.5442C40.5322 65.0301 40.5322 64.5586 40.5322 64.1296C40.5322 63.6967 40.5322 63.2484 40.5322 62.7846H45.5702V63.4976C45.176 63.4976 44.7528 63.4976 44.3006 63.4976C43.8484 63.4976 43.3169 63.4976 42.7063 63.4976H40.8917L41.3323 62.8947C41.3323 63.3585 41.3323 63.8068 41.3323 64.2397C41.3323 64.6726 41.3323 65.1441 41.3323 65.6543V68.1936C41.3323 68.696 41.3323 69.1618 41.3323 69.5908C41.3323 70.0198 41.3323 70.4662 41.3323 70.93L40.9264 70.3387H42.7758C43.2976 70.3387 43.7885 70.3387 44.2484 70.3387C44.7083 70.3387 45.1509 70.3387 45.576 70.3387V71.0518H40.5322ZM41.1583 67.2022V66.5123H42.7932C43.3343 66.5123 43.8001 66.5123 44.1904 66.5123C44.5847 66.5123 44.9634 66.5123 45.3267 66.5123V67.2022C44.9441 67.2022 44.5557 67.2022 44.1614 67.2022C43.7711 67.2022 43.3111 67.2022 42.7816 67.2022H41.1583ZM46.8257 71.0518C46.8257 70.588 46.8257 70.1416 46.8257 69.7125C46.8257 69.2835 46.8257 68.8159 46.8257 68.3096V65.5442C46.8257 65.0301 46.8257 64.5586 46.8257 64.1296C46.8257 63.6967 46.8257 63.2484 46.8257 62.7846C47.0382 62.7846 47.2817 62.7846 47.5561 62.7846C47.8305 62.7846 48.1301 62.7846 48.4547 62.7846C48.7833 62.7846 49.1388 62.7846 49.5215 62.7846C50.1399 62.7846 50.652 62.8599 51.0578 63.0107C51.4636 63.1575 51.767 63.3933 51.968 63.7179C52.169 64.0387 52.2695 64.46 52.2695 64.9818C52.2695 65.4263 52.1825 65.834 52.0086 66.2051C51.8385 66.5761 51.5487 66.8737 51.139 67.0979C50.7293 67.322 50.1708 67.4361 49.4635 67.4399L49.6954 67.0689L51.0462 68.6922C51.2549 68.9434 51.4772 69.212 51.7129 69.498C51.9487 69.7802 52.1787 70.0565 52.4028 70.3271C52.6309 70.5976 52.8318 70.8392 53.0058 71.0518H52.0376C51.7438 70.6962 51.4598 70.3541 51.1854 70.0256C50.9148 69.6932 50.6462 69.3666 50.3795 69.0458L48.8722 67.1906L49.3765 67.5675H47.4866V66.8834H49.1099C49.6394 66.8834 50.0761 66.8235 50.4201 66.7037C50.7641 66.58 51.0172 66.3848 51.1796 66.1181C51.3458 65.8476 51.4288 65.492 51.4288 65.0514C51.4288 64.6726 51.367 64.3769 51.2433 64.1644C51.1235 63.9518 50.965 63.7972 50.7679 63.7006C50.5747 63.6039 50.366 63.544 50.1418 63.5208C49.9176 63.4938 49.6993 63.4803 49.4867 63.4803H47.1039L47.6257 62.8947C47.6257 63.3662 47.6257 63.8184 47.6257 64.2513C47.6257 64.6803 47.6257 65.148 47.6257 65.6543V68.3096C47.6257 68.8159 47.6257 69.2835 47.6257 69.7125C47.6257 70.1416 47.6257 70.588 47.6257 71.0518H46.8257Z" fill="#481E06"/>
<path d="M17.9202 60.4762C17.9202 60.4315 17.9202 60.3887 17.9202 60.3479C17.9202 60.3071 17.9202 60.2646 17.9202 60.2206C17.9202 60.1765 17.9202 60.1282 17.9202 60.0757V59.9785C17.9202 59.9235 17.9202 59.8732 17.9202 59.8279C17.9202 59.7819 17.9202 59.7378 17.9202 59.6957C17.9202 59.6529 17.9202 59.6085 17.9202 59.5625L17.9921 59.6695H17.4701L17.543 59.5625C17.5411 59.604 17.5388 59.6445 17.5362 59.684C17.5336 59.7236 17.531 59.765 17.5285 59.8084C17.5265 59.8512 17.5239 59.8988 17.5207 59.9513C17.5174 60.0109 17.5106 60.0683 17.5003 60.1234C17.4905 60.1784 17.4769 60.2293 17.4594 60.276C17.4419 60.322 17.4202 60.3628 17.3943 60.3984L17.2369 60.3771C17.255 60.3596 17.2738 60.3333 17.2932 60.2983C17.3127 60.2627 17.3298 60.2147 17.3447 60.1545C17.3603 60.0936 17.3713 60.0161 17.3778 59.9222C17.3823 59.8425 17.3865 59.7731 17.3904 59.7142C17.3943 59.6546 17.3979 59.5956 17.4011 59.5373H18.0786C18.0786 59.5846 18.0786 59.6312 18.0786 59.6772C18.0786 59.7226 18.0786 59.7699 18.0786 59.8191C18.0786 59.8677 18.0786 59.9209 18.0786 59.9785V60.0757C18.0786 60.1554 18.0786 60.2254 18.0786 60.2857C18.0786 60.3459 18.0786 60.4095 18.0786 60.4762H17.9202ZM17.1436 60.7697C17.1436 60.7373 17.1436 60.7049 17.1436 60.6725C17.1436 60.6401 17.1436 60.6077 17.1436 60.5753C17.1436 60.5423 17.1436 60.5083 17.1436 60.4733C17.1436 60.4376 17.1436 60.403 17.1436 60.3693C17.2012 60.3693 17.2599 60.3693 17.3195 60.3693C17.3791 60.3693 17.4368 60.3693 17.4925 60.3693H17.8764C17.9328 60.3693 17.9905 60.3693 18.0494 60.3693C18.109 60.3693 18.168 60.3693 18.2263 60.3693C18.2263 60.403 18.2263 60.4376 18.2263 60.4733C18.2263 60.5083 18.2263 60.5423 18.2263 60.5753C18.2263 60.6077 18.2263 60.6401 18.2263 60.6725C18.2263 60.7049 18.2263 60.7373 18.2263 60.7697H18.0864L18.0786 60.4801L18.1146 60.5015H17.2553L17.2913 60.4801L17.2845 60.7697H17.1436ZM18.8279 60.5228C18.7125 60.5228 18.6176 60.5008 18.5431 60.4568C18.4686 60.4127 18.4132 60.3524 18.3769 60.276C18.3406 60.1995 18.3224 60.112 18.3224 60.0135C18.3224 59.9163 18.3403 59.8302 18.3759 59.755C18.4115 59.6798 18.4627 59.6212 18.5295 59.5791C18.5962 59.5363 18.6759 59.5149 18.7686 59.5149C18.8502 59.5149 18.9202 59.5308 18.9785 59.5625C19.0375 59.5943 19.0828 59.6409 19.1146 59.7025C19.1463 59.7634 19.1622 59.8389 19.1622 59.929C19.1622 59.9529 19.1616 59.9747 19.1603 59.9941C19.1596 60.0129 19.1577 60.032 19.1544 60.0514L19.0135 59.9805C19.0148 59.9701 19.0155 59.9604 19.0155 59.9513C19.0161 59.9416 19.0164 59.9322 19.0164 59.9231C19.0164 59.8318 18.9937 59.7624 18.9484 59.7151C18.903 59.6672 18.8437 59.6432 18.7705 59.6432C18.7115 59.6432 18.6607 59.6584 18.6179 59.6889C18.5758 59.7187 18.5431 59.7602 18.5197 59.8133C18.4964 59.8664 18.4848 59.927 18.4848 59.9951V60.0174C18.4848 60.0926 18.4977 60.1574 18.5236 60.2118C18.5496 60.2662 18.5888 60.3084 18.6412 60.3382C18.6944 60.3673 18.7618 60.3819 18.8434 60.3819C18.8739 60.3819 18.9059 60.3796 18.9396 60.3751C18.974 60.3699 19.0077 60.3621 19.0407 60.3518C19.0744 60.3414 19.1065 60.3278 19.1369 60.311L19.1438 60.4558C19.1191 60.4694 19.0906 60.4814 19.0582 60.4917C19.0258 60.5015 18.9902 60.5089 18.9513 60.5141C18.9124 60.5199 18.8713 60.5228 18.8279 60.5228ZM18.3895 60.0514V59.9367L19.0563 59.9309L19.1544 59.9679V60.0514H18.3895ZM19.3641 60.5015C19.3641 60.4295 19.3641 60.3605 19.3641 60.2944C19.3641 60.2277 19.3641 60.1545 19.3641 60.0748V59.9776C19.3641 59.9199 19.3641 59.8668 19.3641 59.8182C19.3641 59.7696 19.3641 59.7226 19.3641 59.6772C19.3641 59.6312 19.3641 59.5846 19.3641 59.5373C19.4224 59.5373 19.4924 59.5373 19.574 59.5373C19.6563 59.5373 19.7354 59.5373 19.8112 59.5373C19.8877 59.5373 19.9489 59.5467 19.9949 59.5655C20.0409 59.5842 20.0739 59.6108 20.094 59.6452C20.1148 59.6789 20.1251 59.719 20.1251 59.7657C20.1251 59.8266 20.1093 59.8755 20.0775 59.9124C20.0464 59.9494 20.0079 59.975 19.9618 59.9892V60.0019C19.993 60.0077 20.0228 60.019 20.0513 60.0359C20.0804 60.0521 20.1044 60.0764 20.1232 60.1088C20.1426 60.1405 20.1524 60.183 20.1524 60.2361C20.1524 60.2867 20.141 60.332 20.1183 60.3722C20.0963 60.4117 20.0568 60.4431 19.9998 60.4665C19.9434 60.4898 19.863 60.5015 19.7587 60.5015C19.6803 60.5015 19.6071 60.5015 19.539 60.5015C19.471 60.5015 19.4127 60.5015 19.3641 60.5015ZM19.5206 60.3722H19.7451C19.8073 60.3722 19.8562 60.3664 19.8919 60.3547C19.9282 60.343 19.9534 60.3259 19.9677 60.3032C19.9826 60.2805 19.99 60.253 19.99 60.2206C19.99 60.1655 19.9706 60.1266 19.9317 60.1039C19.8935 60.0812 19.8374 60.0699 19.7636 60.0699H19.4778V59.9523H19.747C19.8008 59.9523 19.8433 59.9458 19.8744 59.9329C19.9055 59.9193 19.9275 59.9011 19.9405 59.8784C19.9541 59.8551 19.9609 59.8289 19.9609 59.7997C19.9609 59.7505 19.9447 59.7161 19.9123 59.6967C19.8805 59.6766 19.8352 59.6665 19.7762 59.6665H19.5206C19.5206 59.7184 19.5206 59.7686 19.5206 59.8172C19.5206 59.8658 19.5206 59.9186 19.5206 59.9756V60.0728C19.5206 60.1279 19.5206 60.1791 19.5206 60.2264C19.5206 60.2737 19.5206 60.3223 19.5206 60.3722ZM20.8061 60.5228C20.6907 60.5228 20.5958 60.5008 20.5213 60.4568C20.4467 60.4127 20.3913 60.3524 20.3551 60.276C20.3188 60.1995 20.3006 60.112 20.3006 60.0135C20.3006 59.9163 20.3184 59.8302 20.3541 59.755C20.3897 59.6798 20.4409 59.6212 20.5077 59.5791C20.5744 59.5363 20.6541 59.5149 20.7468 59.5149C20.8284 59.5149 20.8984 59.5308 20.9567 59.5625C21.0157 59.5943 21.061 59.6409 21.0928 59.7025C21.1245 59.7634 21.1404 59.8389 21.1404 59.929C21.1404 59.9529 21.1398 59.9747 21.1385 59.9941C21.1378 60.0129 21.1359 60.032 21.1326 60.0514L20.9917 59.9805C20.993 59.9701 20.9936 59.9604 20.9936 59.9513C20.9943 59.9416 20.9946 59.9322 20.9946 59.9231C20.9946 59.8318 20.9719 59.7624 20.9266 59.7151C20.8812 59.6672 20.8219 59.6432 20.7487 59.6432C20.6897 59.6432 20.6389 59.6584 20.5961 59.6889C20.554 59.7187 20.5213 59.7602 20.4979 59.8133C20.4746 59.8664 20.4629 59.927 20.4629 59.9951V60.0174C20.4629 60.0926 20.4759 60.1574 20.5018 60.2118C20.5277 60.2662 20.5669 60.3084 20.6194 60.3382C20.6726 60.3673 20.74 60.3819 20.8216 60.3819C20.8521 60.3819 20.8841 60.3796 20.9178 60.3751C20.9522 60.3699 20.9859 60.3621 21.0189 60.3518C21.0526 60.3414 21.0847 60.3278 21.1151 60.311L21.1219 60.4558C21.0973 60.4694 21.0688 60.4814 21.0364 60.4917C21.004 60.5015 20.9684 60.5089 20.9295 60.5141C20.8906 60.5199 20.8495 60.5228 20.8061 60.5228ZM20.3677 60.0514V59.9367L21.0345 59.9309L21.1326 59.9679V60.0514H20.3677ZM21.316 60.519C21.3063 60.519 21.2953 60.5183 21.283 60.517C21.2707 60.5164 21.2584 60.5151 21.2461 60.5131C21.2344 60.5112 21.2234 60.5089 21.213 60.5063L21.2227 60.3673C21.2337 60.3699 21.2444 60.3719 21.2548 60.3732C21.2658 60.3738 21.2746 60.3741 21.281 60.3741C21.316 60.3741 21.3442 60.3605 21.3656 60.3333C21.3876 60.3061 21.4045 60.2698 21.4161 60.2245C21.4278 60.1791 21.4366 60.1295 21.4424 60.0757C21.4482 60.0213 21.4528 59.9675 21.456 59.9144C21.4599 59.8509 21.4641 59.7874 21.4686 59.7239C21.4732 59.6597 21.4774 59.5975 21.4813 59.5373H22.1597C22.1597 59.5846 22.1597 59.6312 22.1597 59.6772C22.1597 59.7226 22.1597 59.7699 22.1597 59.8191C22.1597 59.8677 22.1597 59.9209 22.1597 59.9785V60.0757C22.1597 60.1554 22.1597 60.2283 22.1597 60.2944C22.1597 60.3605 22.1597 60.4295 22.1597 60.5015H21.9993C21.9993 60.4295 21.9993 60.3605 21.9993 60.2944C21.9993 60.2283 21.9993 60.1554 21.9993 60.0757V59.9785C21.9993 59.9235 21.9993 59.8732 21.9993 59.8279C21.9993 59.7819 21.9993 59.7378 21.9993 59.6957C21.9993 59.6529 21.9993 59.6085 21.9993 59.5625L22.0946 59.6685H21.5435L21.6261 59.5625C21.6229 59.606 21.6196 59.6507 21.6164 59.6967C21.6131 59.7427 21.6099 59.7887 21.6067 59.8347C21.6041 59.88 21.6008 59.9254 21.5969 59.9708C21.5918 60.0433 21.5846 60.1127 21.5756 60.1788C21.5671 60.2442 21.5535 60.3025 21.5347 60.3537C21.5166 60.4049 21.49 60.4454 21.455 60.4752C21.4207 60.5044 21.3744 60.519 21.316 60.519ZM22.8569 60.5228C22.7772 60.5228 22.7069 60.5092 22.646 60.482C22.5857 60.4542 22.5352 60.4166 22.4944 60.3693C22.4535 60.322 22.4224 60.2679 22.401 60.207C22.3803 60.1454 22.3699 60.0809 22.3699 60.0135C22.3699 59.917 22.3894 59.8315 22.4283 59.7569C22.4678 59.6818 22.5235 59.6225 22.5954 59.5791C22.668 59.5356 22.7542 59.5139 22.854 59.5139C22.9311 59.5139 22.9995 59.5266 23.0591 59.5518C23.1187 59.5771 23.1692 59.6124 23.2107 59.6578C23.2522 59.7032 23.2836 59.7563 23.305 59.8172C23.3264 59.8775 23.3371 59.9429 23.3371 60.0135C23.3371 60.1088 23.3176 60.195 23.2787 60.2721C23.2399 60.3492 23.1845 60.4104 23.1125 60.4558C23.0413 60.5005 22.956 60.5228 22.8569 60.5228ZM22.8569 60.3829C22.9275 60.3829 22.9862 60.3654 23.0328 60.3304C23.0795 60.2954 23.1145 60.2497 23.1378 60.1933C23.1611 60.137 23.1728 60.077 23.1728 60.0135C23.1728 59.941 23.1598 59.8778 23.1339 59.824C23.108 59.7702 23.0714 59.7284 23.0241 59.6986C22.9768 59.6688 22.9207 59.6539 22.8559 59.6539C22.7859 59.6539 22.727 59.6698 22.679 59.7015C22.6311 59.7333 22.5948 59.7764 22.5702 59.8308C22.5462 59.8852 22.5342 59.9461 22.5342 60.0135C22.5342 60.077 22.5459 60.137 22.5692 60.1933C22.5932 60.2497 22.6291 60.2954 22.6771 60.3304C22.725 60.3654 22.785 60.3829 22.8569 60.3829ZM23.5483 60.5015C23.5483 60.4295 23.5483 60.3605 23.5483 60.2944C23.5483 60.2283 23.5483 60.1554 23.5483 60.0757V59.9785C23.5483 59.9209 23.5483 59.8677 23.5483 59.8191C23.5483 59.7699 23.5483 59.7226 23.5483 59.6772C23.5483 59.6312 23.5483 59.5846 23.5483 59.5373H24.3502C24.3502 59.5846 24.3502 59.6312 24.3502 59.6772C24.3502 59.7226 24.3502 59.7699 24.3502 59.8191C24.3502 59.8677 24.3502 59.9209 24.3502 59.9785V60.0757C24.3502 60.1554 24.3502 60.2283 24.3502 60.2944C24.3502 60.3605 24.3502 60.4295 24.3502 60.5015H24.1888C24.1888 60.4295 24.1888 60.3605 24.1888 60.2944C24.1888 60.2283 24.1888 60.1554 24.1888 60.0757V59.9785C24.1888 59.9235 24.1888 59.8732 24.1888 59.8279C24.1888 59.7819 24.1888 59.7378 24.1888 59.6957C24.1888 59.6529 24.1888 59.6085 24.1888 59.5625L24.2607 59.6685H23.6377L23.7087 59.5625C23.7087 59.6085 23.7087 59.6529 23.7087 59.6957C23.7087 59.7378 23.7087 59.7819 23.7087 59.8279C23.7087 59.8732 23.7087 59.9235 23.7087 59.9785V60.0757C23.7087 60.1554 23.7087 60.2283 23.7087 60.2944C23.7087 60.3605 23.7087 60.4295 23.7087 60.5015H23.5483ZM24.552 60.5015C24.5598 60.4308 24.5676 60.3618 24.5753 60.2944C24.5831 60.2264 24.5906 60.159 24.5977 60.0923L24.6123 59.9601C24.6207 59.8894 24.6288 59.8188 24.6366 59.7482C24.6443 59.6776 24.6521 59.6072 24.6599 59.5373H24.8349C24.8614 59.5995 24.888 59.6623 24.9146 59.7258C24.9418 59.7893 24.9687 59.8519 24.9952 59.9134L25.1507 60.2789H25.1653L25.3199 59.9134C25.3464 59.8499 25.373 59.7871 25.3996 59.7249C25.4261 59.662 25.4527 59.5995 25.4793 59.5373H25.6513C25.6591 59.606 25.6669 59.6766 25.6746 59.7492C25.6831 59.8211 25.6912 59.8917 25.6989 59.961L25.7135 60.0942C25.7206 60.159 25.7281 60.2257 25.7359 60.2944C25.7436 60.3631 25.7514 60.4321 25.7592 60.5015H25.6066C25.5988 60.4276 25.5907 60.3531 25.5823 60.2779C25.5745 60.2021 25.5664 60.1273 25.558 60.0534L25.5279 59.7696H25.5133L25.3898 60.0728C25.3613 60.1441 25.3325 60.2154 25.3033 60.2867C25.2742 60.3579 25.245 60.4295 25.2159 60.5015H25.1002C25.0704 60.4295 25.0406 60.3583 25.0108 60.2876C24.9816 60.2164 24.9525 60.1457 24.9233 60.0757L24.796 59.7696H24.7814L24.7503 60.0505C24.7419 60.1256 24.7334 60.2008 24.725 60.276C24.7172 60.3511 24.7091 60.4263 24.7007 60.5015H24.552ZM26.4055 60.5228C26.2902 60.5228 26.1953 60.5008 26.1207 60.4568C26.0462 60.4127 25.9908 60.3524 25.9545 60.276C25.9182 60.1995 25.9001 60.112 25.9001 60.0135C25.9001 59.9163 25.9179 59.8302 25.9536 59.755C25.9892 59.6798 26.0404 59.6212 26.1071 59.5791C26.1739 59.5363 26.2536 59.5149 26.3462 59.5149C26.4279 59.5149 26.4979 59.5308 26.5562 59.5625C26.6152 59.5943 26.6605 59.6409 26.6923 59.7025C26.724 59.7634 26.7399 59.8389 26.7399 59.929C26.7399 59.9529 26.7392 59.9747 26.7379 59.9941C26.7373 60.0129 26.7354 60.032 26.7321 60.0514L26.5912 59.9805C26.5925 59.9701 26.5931 59.9604 26.5931 59.9513C26.5938 59.9416 26.5941 59.9322 26.5941 59.9231C26.5941 59.8318 26.5714 59.7624 26.5261 59.7151C26.4807 59.6672 26.4214 59.6432 26.3482 59.6432C26.2892 59.6432 26.2383 59.6584 26.1956 59.6889C26.1535 59.7187 26.1207 59.7602 26.0974 59.8133C26.0741 59.8664 26.0624 59.927 26.0624 59.9951V60.0174C26.0624 60.0926 26.0754 60.1574 26.1013 60.2118C26.1272 60.2662 26.1664 60.3084 26.2189 60.3382C26.272 60.3673 26.3394 60.3819 26.4211 60.3819C26.4515 60.3819 26.4836 60.3796 26.5173 60.3751C26.5516 60.3699 26.5853 60.3621 26.6184 60.3518C26.6521 60.3414 26.6842 60.3278 26.7146 60.311L26.7214 60.4558C26.6968 60.4694 26.6683 60.4814 26.6359 60.4917C26.6035 60.5015 26.5678 60.5089 26.529 60.5141C26.4901 60.5199 26.4489 60.5228 26.4055 60.5228ZM25.9672 60.0514V59.9367L26.6339 59.9309L26.7321 59.9679V60.0514H25.9672ZM26.9418 60.5015C26.9418 60.4295 26.9418 60.3605 26.9418 60.2944C26.9418 60.2283 26.9418 60.1554 26.9418 60.0757V59.9785C26.9418 59.9209 26.9418 59.8677 26.9418 59.8191C26.9418 59.7699 26.9418 59.7226 26.9418 59.6772C26.9418 59.6312 26.9418 59.5846 26.9418 59.5373L27.1012 59.5305C27.1012 59.5784 27.1012 59.6257 27.1012 59.6724C27.1012 59.719 27.1012 59.7673 27.1012 59.8172C27.1012 59.8664 27.1012 59.9202 27.1012 59.9785V60.0757C27.1012 60.1554 27.1012 60.2283 27.1012 60.2944C27.1012 60.3605 27.1012 60.4295 27.1012 60.5015H26.9418ZM27.037 60.0796V59.9494H27.6562V60.0796H27.037ZM27.5842 60.5015C27.5842 60.4295 27.5842 60.3605 27.5842 60.2944C27.5842 60.2283 27.5842 60.1554 27.5842 60.0757V59.9785C27.5842 59.9209 27.5842 59.8677 27.5842 59.8191C27.5842 59.7699 27.5842 59.7226 27.5842 59.6772C27.5842 59.6312 27.5842 59.5846 27.5842 59.5373H27.7436C27.7436 59.5846 27.7436 59.6312 27.7436 59.6772C27.7436 59.7226 27.7436 59.7699 27.7436 59.8191C27.7436 59.8677 27.7436 59.9209 27.7436 59.9785V60.0757C27.7436 60.1554 27.7436 60.2283 27.7436 60.2944C27.7436 60.3605 27.7436 60.4295 27.7436 60.5015H27.5842ZM28.2342 60.5015C28.2342 60.4295 28.2342 60.3605 28.2342 60.2944C28.2342 60.2283 28.2342 60.1554 28.2342 60.0757V59.9785C28.2342 59.9235 28.2342 59.8732 28.2342 59.8279C28.2342 59.7819 28.2342 59.7378 28.2342 59.6957C28.2342 59.6529 28.2342 59.6085 28.2342 59.5625L28.2876 59.6685H28.2507C28.1943 59.6685 28.1363 59.6685 28.0767 59.6685C28.0171 59.6685 27.9584 59.6685 27.9008 59.6685V59.5373H28.7279V59.6685C28.6703 59.6685 28.6116 59.6685 28.552 59.6685C28.4924 59.6685 28.4344 59.6685 28.378 59.6685H28.3411L28.3945 59.5625C28.3945 59.6085 28.3945 59.6529 28.3945 59.6957C28.3945 59.7378 28.3945 59.7819 28.3945 59.8279C28.3945 59.8732 28.3945 59.9235 28.3945 59.9785V60.0757C28.3945 60.1554 28.3945 60.2283 28.3945 60.2944C28.3945 60.3605 28.3945 60.4295 28.3945 60.5015H28.2342ZM29.219 60.5015C29.219 60.4295 29.219 60.3605 29.219 60.2944C29.219 60.2283 29.219 60.1554 29.219 60.0757V59.9785C29.219 59.9209 29.219 59.8677 29.219 59.8191C29.219 59.7699 29.219 59.7226 29.219 59.6772C29.219 59.6312 29.219 59.5846 29.219 59.5373L29.3745 59.5314C29.3745 59.5774 29.3745 59.6228 29.3745 59.6675C29.3745 59.7122 29.3745 59.7586 29.3745 59.8065C29.3745 59.8538 29.3745 59.9053 29.3745 59.961V60.2682H29.3881L29.5951 59.9484C29.6398 59.8797 29.6846 59.8107 29.7293 59.7414C29.774 59.672 29.8184 59.604 29.8624 59.5373H30.0286C30.0286 59.5846 30.0286 59.6312 30.0286 59.6772C30.0286 59.7226 30.0286 59.7699 30.0286 59.8191C30.0286 59.8677 30.0286 59.9209 30.0286 59.9785V60.0757C30.0286 60.1554 30.0286 60.2283 30.0286 60.2944C30.0286 60.3605 30.0286 60.4295 30.0286 60.5015H29.8741C29.8741 60.4308 29.8741 60.3628 29.8741 60.2974C29.8741 60.2313 29.8741 60.159 29.8741 60.0806V59.7696H29.8605L29.6554 60.0855C29.61 60.1554 29.565 60.2251 29.5203 60.2944C29.4756 60.3638 29.4309 60.4328 29.3862 60.5015H29.219ZM30.2945 60.5015C30.2945 60.4295 30.2945 60.3605 30.2945 60.2944C30.2945 60.2283 30.2945 60.1554 30.2945 60.0757V59.9785C30.2945 59.9209 30.2945 59.8677 30.2945 59.8191C30.2945 59.7699 30.2945 59.7226 30.2945 59.6772C30.2945 59.6312 30.2945 59.5846 30.2945 59.5373L30.4539 59.5305C30.4539 59.5784 30.4539 59.6257 30.4539 59.6724C30.4539 59.719 30.4539 59.7673 30.4539 59.8172C30.4539 59.8664 30.4539 59.9202 30.4539 59.9785V60.0757C30.4539 60.1554 30.4539 60.2283 30.4539 60.2944C30.4539 60.3605 30.4539 60.4295 30.4539 60.5015H30.2945ZM30.3897 60.0796V59.9494H31.0089V60.0796H30.3897ZM30.9369 60.5015C30.9369 60.4295 30.9369 60.3605 30.9369 60.2944C30.9369 60.2283 30.9369 60.1554 30.9369 60.0757V59.9785C30.9369 59.9209 30.9369 59.8677 30.9369 59.8191C30.9369 59.7699 30.9369 59.7226 30.9369 59.6772C30.9369 59.6312 30.9369 59.5846 30.9369 59.5373H31.0963C31.0963 59.5846 31.0963 59.6312 31.0963 59.6772C31.0963 59.7226 31.0963 59.7699 31.0963 59.8191C31.0963 59.8677 31.0963 59.9209 31.0963 59.9785V60.0757C31.0963 60.1554 31.0963 60.2283 31.0963 60.2944C31.0963 60.3605 31.0963 60.4295 31.0963 60.5015H30.9369ZM31.2476 60.5015C31.2995 60.4444 31.3513 60.3877 31.4032 60.3314C31.455 60.2743 31.5062 60.2176 31.5567 60.1613L31.7297 59.9649L31.7278 60.0427L31.5781 59.8755C31.5269 59.8185 31.4764 59.7621 31.4265 59.7064C31.3766 59.6507 31.3257 59.5943 31.2739 59.5373L31.4634 59.5314C31.5029 59.5774 31.5428 59.6238 31.583 59.6704C31.6231 59.7164 31.663 59.7624 31.7025 59.8084L31.8308 59.9572H31.9241V60.0719H31.8347L31.687 60.2371C31.6481 60.2812 31.6089 60.3252 31.5694 60.3693C31.5305 60.4133 31.4916 60.4574 31.4527 60.5015H31.2476ZM31.9028 60.5015C31.9028 60.4328 31.9028 60.367 31.9028 60.3042C31.9028 60.2413 31.9028 60.1736 31.9028 60.101V59.9572C31.9028 59.882 31.9028 59.8107 31.9028 59.7433C31.9028 59.6759 31.9028 59.6072 31.9028 59.5373H32.0592C32.0592 59.6072 32.0592 59.6763 32.0592 59.7443C32.0592 59.8117 32.0592 59.8826 32.0592 59.9572V60.101C32.0592 60.1736 32.0592 60.2413 32.0592 60.3042C32.0592 60.367 32.0592 60.4328 32.0592 60.5015H31.9028ZM32.5083 60.5015C32.4668 60.4555 32.4266 60.4107 32.3878 60.3673C32.3489 60.3239 32.309 60.2799 32.2682 60.2351L32.1214 60.0719H32.0379V59.9572H32.1312L32.2556 59.8084C32.2938 59.7637 32.3324 59.7187 32.3712 59.6733C32.4101 59.6273 32.4487 59.582 32.4869 59.5373H32.6803C32.6304 59.5936 32.5805 59.65 32.5306 59.7064C32.4814 59.7621 32.4322 59.8178 32.3829 59.8736L32.2342 60.0427L32.2264 59.9649L32.3994 60.1603C32.4519 60.2173 32.5044 60.2743 32.5569 60.3314C32.6094 60.3877 32.6615 60.4444 32.7134 60.5015H32.5083ZM32.8649 60.5015C32.8649 60.4295 32.8649 60.3605 32.8649 60.2944C32.8649 60.2283 32.8649 60.1554 32.8649 60.0757V59.9785C32.8649 59.9209 32.8649 59.8677 32.8649 59.8191C32.8649 59.7699 32.8649 59.7226 32.8649 59.6772C32.8649 59.6312 32.8649 59.5846 32.8649 59.5373L33.0205 59.5314C33.0205 59.5774 33.0205 59.6228 33.0205 59.6675C33.0205 59.7122 33.0205 59.7586 33.0205 59.8065C33.0205 59.8538 33.0205 59.9053 33.0205 59.961V60.2682H33.0341L33.2411 59.9484C33.2858 59.8797 33.3305 59.8107 33.3752 59.7414C33.4199 59.672 33.4643 59.604 33.5084 59.5373H33.6746C33.6746 59.5846 33.6746 59.6312 33.6746 59.6772C33.6746 59.7226 33.6746 59.7699 33.6746 59.8191C33.6746 59.8677 33.6746 59.9209 33.6746 59.9785V60.0757C33.6746 60.1554 33.6746 60.2283 33.6746 60.2944C33.6746 60.3605 33.6746 60.4295 33.6746 60.5015H33.5201C33.5201 60.4308 33.5201 60.3628 33.5201 60.2974C33.5201 60.2313 33.5201 60.159 33.5201 60.0806V59.7696H33.5064L33.3014 60.0855C33.256 60.1554 33.211 60.2251 33.1663 60.2944C33.1215 60.3638 33.0768 60.4328 33.0321 60.5015H32.8649ZM33.9404 60.5015C33.9404 60.4295 33.9404 60.3605 33.9404 60.2944C33.9404 60.2283 33.9404 60.1554 33.9404 60.0757V59.9785C33.9404 59.9209 33.9404 59.8677 33.9404 59.8191C33.9404 59.7699 33.9404 59.7226 33.9404 59.6772C33.9404 59.6312 33.9404 59.5846 33.9404 59.5373L34.0998 59.5305C34.0998 59.5784 34.0998 59.6257 34.0998 59.6724C34.0998 59.719 34.0998 59.7673 34.0998 59.8172C34.0998 59.8664 34.0998 59.9202 34.0998 59.9785V60.0757C34.0998 60.1554 34.0998 60.2283 34.0998 60.2944C34.0998 60.3605 34.0998 60.4295 34.0998 60.5015H33.9404ZM34.0357 60.0796V59.9494H34.6548V60.0796H34.0357ZM34.5829 60.5015C34.5829 60.4295 34.5829 60.3605 34.5829 60.2944C34.5829 60.2283 34.5829 60.1554 34.5829 60.0757V59.9785C34.5829 59.9209 34.5829 59.8677 34.5829 59.8191C34.5829 59.7699 34.5829 59.7226 34.5829 59.6772C34.5829 59.6312 34.5829 59.5846 34.5829 59.5373H34.7423C34.7423 59.5846 34.7423 59.6312 34.7423 59.6772C34.7423 59.7226 34.7423 59.7699 34.7423 59.8191C34.7423 59.8677 34.7423 59.9209 34.7423 59.9785V60.0757C34.7423 60.1554 34.7423 60.2283 34.7423 60.2944C34.7423 60.3605 34.7423 60.4295 34.7423 60.5015H34.5829ZM35.0083 60.5015C35.0083 60.4295 35.0083 60.3605 35.0083 60.2944C35.0083 60.2283 35.0083 60.1554 35.0083 60.0757V59.9785C35.0083 59.9209 35.0083 59.8677 35.0083 59.8191C35.0083 59.7699 35.0083 59.7226 35.0083 59.6772C35.0083 59.6312 35.0083 59.5846 35.0083 59.5373L35.1638 59.5314C35.1638 59.5774 35.1638 59.6228 35.1638 59.6675C35.1638 59.7122 35.1638 59.7586 35.1638 59.8065C35.1638 59.8538 35.1638 59.9053 35.1638 59.961V60.2682H35.1774L35.3844 59.9484C35.4292 59.8797 35.4739 59.8107 35.5186 59.7414C35.5633 59.672 35.6077 59.604 35.6517 59.5373H35.8179C35.8179 59.5846 35.8179 59.6312 35.8179 59.6772C35.8179 59.7226 35.8179 59.7699 35.8179 59.8191C35.8179 59.8677 35.8179 59.9209 35.8179 59.9785V60.0757C35.8179 60.1554 35.8179 60.2283 35.8179 60.2944C35.8179 60.3605 35.8179 60.4295 35.8179 60.5015H35.6634C35.6634 60.4308 35.6634 60.3628 35.6634 60.2974C35.6634 60.2313 35.6634 60.159 35.6634 60.0806V59.7696H35.6498L35.4447 60.0855C35.3994 60.1554 35.3543 60.2251 35.3096 60.2944C35.2649 60.3638 35.2202 60.4328 35.1755 60.5015H35.0083ZM36.0838 60.8805C36.0838 60.8093 36.0838 60.7393 36.0838 60.6706C36.0838 60.6026 36.0838 60.5287 36.0838 60.449V59.9785C36.0838 59.9073 36.0838 59.8344 36.0838 59.7598C36.0838 59.6853 36.0838 59.6111 36.0838 59.5373L36.2296 59.5275L36.2335 59.6529H36.25C36.2694 59.6277 36.294 59.6047 36.3238 59.5839C36.3537 59.5625 36.3877 59.5457 36.4259 59.5334C36.4648 59.5204 36.5072 59.5139 36.5532 59.5139C36.6414 59.5139 36.7162 59.536 36.7778 59.58C36.84 59.6234 36.8873 59.6831 36.9197 59.7589C36.9521 59.8347 36.9683 59.9205 36.9683 60.0165C36.9683 60.1065 36.953 60.1901 36.9226 60.2672C36.8928 60.3437 36.8471 60.4056 36.7855 60.4529C36.7246 60.4995 36.6482 60.5228 36.5561 60.5228C36.5134 60.5228 36.4739 60.517 36.4376 60.5054C36.4013 60.4943 36.3682 60.4785 36.3384 60.4577C36.3093 60.4363 36.2827 60.4104 36.2587 60.38H36.2441V60.4558C36.2441 60.5316 36.2441 60.6022 36.2441 60.6677C36.2441 60.7338 36.2441 60.8028 36.2441 60.8747L36.0838 60.8805ZM36.5075 60.379C36.5769 60.379 36.6333 60.3618 36.6767 60.3275C36.7207 60.2931 36.7528 60.2488 36.7729 60.1943C36.7936 60.1392 36.804 60.0803 36.804 60.0174C36.804 59.952 36.793 59.8924 36.771 59.8386C36.7496 59.7841 36.7168 59.7407 36.6728 59.7083C36.6287 59.6759 36.5727 59.6597 36.5046 59.6597C36.4709 59.6597 36.4379 59.6649 36.4055 59.6753C36.3731 59.685 36.343 59.6999 36.3151 59.72C36.2879 59.7394 36.2642 59.7637 36.2441 59.7929V60.2215C36.2636 60.2546 36.2859 60.2828 36.3112 60.3061C36.3371 60.3294 36.3663 60.3476 36.3987 60.3605C36.4311 60.3728 36.4674 60.379 36.5075 60.379ZM37.182 60.5015C37.182 60.4295 37.182 60.3605 37.182 60.2944C37.182 60.2283 37.182 60.1554 37.182 60.0757V59.9785C37.182 59.9209 37.182 59.8677 37.182 59.8191C37.182 59.7699 37.182 59.7226 37.182 59.6772C37.182 59.6312 37.182 59.5846 37.182 59.5373L37.3375 59.5314C37.3375 59.5774 37.3375 59.6228 37.3375 59.6675C37.3375 59.7122 37.3375 59.7586 37.3375 59.8065C37.3375 59.8538 37.3375 59.9053 37.3375 59.961V60.2682H37.3511L37.5582 59.9484C37.6029 59.8797 37.6476 59.8107 37.6923 59.7414C37.737 59.672 37.7814 59.604 37.8255 59.5373H37.9917C37.9917 59.5846 37.9917 59.6312 37.9917 59.6772C37.9917 59.7226 37.9917 59.7699 37.9917 59.8191C37.9917 59.8677 37.9917 59.9209 37.9917 59.9785V60.0757C37.9917 60.1554 37.9917 60.2283 37.9917 60.2944C37.9917 60.3605 37.9917 60.4295 37.9917 60.5015H37.8371C37.8371 60.4308 37.8371 60.3628 37.8371 60.2974C37.8371 60.2313 37.8371 60.159 37.8371 60.0806V59.7696H37.8235L37.6184 60.0855C37.5731 60.1554 37.528 60.2251 37.4833 60.2944C37.4386 60.3638 37.3939 60.4328 37.3492 60.5015H37.182ZM38.2575 60.5015C38.2575 60.4295 38.2575 60.3605 38.2575 60.2944C38.2575 60.2283 38.2575 60.1554 38.2575 60.0757V59.9785C38.2575 59.9209 38.2575 59.8677 38.2575 59.8191C38.2575 59.7699 38.2575 59.7226 38.2575 59.6772C38.2575 59.6312 38.2575 59.5846 38.2575 59.5373L38.4169 59.5305C38.4169 59.5784 38.4169 59.6257 38.4169 59.6724C38.4169 59.719 38.4169 59.7673 38.4169 59.8172C38.4169 59.8664 38.4169 59.9202 38.4169 59.9785V60.0757C38.4169 60.1554 38.4169 60.2283 38.4169 60.2944C38.4169 60.3605 38.4169 60.4295 38.4169 60.5015H38.2575ZM38.3527 60.0796V59.9494H38.9719V60.0796H38.3527ZM38.9 60.5015C38.9 60.4295 38.9 60.3605 38.9 60.2944C38.9 60.2283 38.9 60.1554 38.9 60.0757V59.9785C38.9 59.9209 38.9 59.8677 38.9 59.8191C38.9 59.7699 38.9 59.7226 38.9 59.6772C38.9 59.6312 38.9 59.5846 38.9 59.5373H39.0594C39.0594 59.5846 39.0594 59.6312 39.0594 59.6772C39.0594 59.7226 39.0594 59.7699 39.0594 59.8191C39.0594 59.8677 39.0594 59.9209 39.0594 59.9785V60.0757C39.0594 60.1554 39.0594 60.2283 39.0594 60.2944C39.0594 60.3605 39.0594 60.4295 39.0594 60.5015H38.9ZM39.3254 60.5015C39.3254 60.4295 39.3254 60.3605 39.3254 60.2944C39.3254 60.2283 39.3254 60.1554 39.3254 60.0757V59.9785C39.3254 59.9209 39.3254 59.8677 39.3254 59.8191C39.3254 59.7699 39.3254 59.7226 39.3254 59.6772C39.3254 59.6312 39.3254 59.5846 39.3254 59.5373H39.9747V59.6685C39.9105 59.6685 39.8457 59.6685 39.7803 59.6685C39.7148 59.6685 39.651 59.6685 39.5888 59.6685H39.3905L39.4858 59.5625C39.4858 59.6085 39.4858 59.6529 39.4858 59.6957C39.4858 59.7378 39.4858 59.7819 39.4858 59.8279C39.4858 59.8732 39.4858 59.9235 39.4858 59.9785V60.0757C39.4858 60.1554 39.4858 60.2283 39.4858 60.2944C39.4858 60.3605 39.4858 60.4295 39.4858 60.5015H39.3254ZM40.9036 60.5228C40.8239 60.5228 40.7536 60.5092 40.6927 60.482C40.6325 60.4542 40.5819 60.4166 40.5411 60.3693C40.5003 60.322 40.4692 60.2679 40.4478 60.207C40.427 60.1454 40.4167 60.0809 40.4167 60.0135C40.4167 59.917 40.4361 59.8315 40.475 59.7569C40.5145 59.6818 40.5702 59.6225 40.6422 59.5791C40.7147 59.5356 40.8009 59.5139 40.9007 59.5139C40.9778 59.5139 41.0462 59.5266 41.1058 59.5518C41.1654 59.5771 41.216 59.6124 41.2574 59.6578C41.2989 59.7032 41.3303 59.7563 41.3517 59.8172C41.3731 59.8775 41.3838 59.9429 41.3838 60.0135C41.3838 60.1088 41.3643 60.195 41.3255 60.2721C41.2866 60.3492 41.2312 60.4104 41.1593 60.4558C41.088 60.5005 41.0028 60.5228 40.9036 60.5228ZM40.9036 60.3829C40.9743 60.3829 41.0329 60.3654 41.0796 60.3304C41.1262 60.2954 41.1612 60.2497 41.1845 60.1933C41.2079 60.137 41.2195 60.077 41.2195 60.0135C41.2195 59.941 41.2066 59.8778 41.1806 59.824C41.1547 59.7702 41.1181 59.7284 41.0708 59.6986C41.0235 59.6688 40.9675 59.6539 40.9027 59.6539C40.8327 59.6539 40.7737 59.6698 40.7258 59.7015C40.6778 59.7333 40.6415 59.7764 40.6169 59.8308C40.5929 59.8852 40.5809 59.9461 40.5809 60.0135C40.5809 60.077 40.5926 60.137 40.6159 60.1933C40.6399 60.2497 40.6759 60.2954 40.7238 60.3304C40.7718 60.3654 40.8317 60.3829 40.9036 60.3829ZM42.0518 60.5228C41.9533 60.5228 41.8665 60.4992 41.7913 60.4519C41.7168 60.4039 41.6585 60.3304 41.6164 60.2313C41.5743 60.1315 41.5532 60.0035 41.5532 59.8473C41.5532 59.6983 41.5688 59.57 41.5999 59.4624C41.6316 59.3549 41.6857 59.2703 41.7622 59.2087C41.8387 59.1465 41.9443 59.1086 42.0791 59.095C42.094 59.0937 42.117 59.0918 42.1481 59.0892C42.1792 59.0859 42.2135 59.0827 42.2511 59.0795C42.2893 59.0756 42.3269 59.072 42.3638 59.0688C42.4008 59.0649 42.4329 59.0616 42.4601 59.0591L42.4737 59.2117C42.4458 59.2142 42.4128 59.2172 42.3745 59.2204C42.3369 59.2236 42.2987 59.2269 42.2598 59.2301C42.2216 59.2334 42.1873 59.2363 42.1568 59.2389C42.127 59.2415 42.1059 59.2434 42.0936 59.2447C41.99 59.2544 41.9096 59.2823 41.8526 59.3283C41.7956 59.3737 41.756 59.4381 41.734 59.5217C41.712 59.6047 41.7006 59.7074 41.7 59.8298L41.7223 59.8444C41.7223 59.9351 41.7298 60.0145 41.7447 60.0825C41.7602 60.1499 41.7823 60.206 41.8108 60.2507C41.8399 60.2954 41.8746 60.3288 41.9148 60.3508C41.9556 60.3728 42.001 60.3839 42.0509 60.3839C42.1215 60.3839 42.1795 60.3667 42.2248 60.3323C42.2702 60.298 42.3036 60.253 42.325 60.1972C42.347 60.1415 42.358 60.0816 42.358 60.0174C42.358 59.9539 42.3483 59.8962 42.3288 59.8444C42.3101 59.7919 42.2793 59.7501 42.2365 59.719C42.1944 59.6873 42.138 59.6714 42.0674 59.6714C42.0337 59.6714 41.9961 59.6782 41.9546 59.6918C41.9132 59.7054 41.871 59.7284 41.8283 59.7608C41.7862 59.7932 41.7466 59.8373 41.7097 59.893C41.6961 59.8775 41.6867 59.86 41.6815 59.8405C41.677 59.8211 41.675 59.8016 41.6757 59.7822C41.6763 59.7621 41.6786 59.7446 41.6825 59.7297H41.7175C41.7544 59.6844 41.7949 59.6481 41.839 59.6209C41.8837 59.593 41.9297 59.5726 41.977 59.5596C42.0249 59.5467 42.071 59.5402 42.115 59.5402C42.2057 59.5402 42.2812 59.5606 42.3415 59.6014C42.4024 59.6422 42.4478 59.6983 42.4776 59.7696C42.508 59.8408 42.5232 59.9222 42.5232 60.0135C42.5232 60.1081 42.5048 60.194 42.4678 60.2711C42.4309 60.3482 42.3774 60.4095 42.3075 60.4548C42.2375 60.5002 42.1523 60.5228 42.0518 60.5228ZM42.735 60.8805C42.735 60.8093 42.735 60.7393 42.735 60.6706C42.735 60.6026 42.735 60.5287 42.735 60.449V59.9785C42.735 59.9073 42.735 59.8344 42.735 59.7598C42.735 59.6853 42.735 59.6111 42.735 59.5373L42.8808 59.5275L42.8847 59.6529H42.9012C42.9207 59.6277 42.9453 59.6047 42.9751 59.5839C43.0049 59.5625 43.0389 59.5457 43.0772 59.5334C43.116 59.5204 43.1585 59.5139 43.2045 59.5139C43.2926 59.5139 43.3675 59.536 43.429 59.58C43.4912 59.6234 43.5385 59.6831 43.5709 59.7589C43.6033 59.8347 43.6195 59.9205 43.6195 60.0165C43.6195 60.1065 43.6043 60.1901 43.5738 60.2672C43.544 60.3437 43.4983 60.4056 43.4368 60.4529C43.3759 60.4995 43.2994 60.5228 43.2074 60.5228C43.1646 60.5228 43.1251 60.517 43.0888 60.5054C43.0525 60.4943 43.0195 60.4785 42.9897 60.4577C42.9605 60.4363 42.934 60.4104 42.91 60.38H42.8954V60.4558C42.8954 60.5316 42.8954 60.6022 42.8954 60.6677C42.8954 60.7338 42.8954 60.8028 42.8954 60.8747L42.735 60.8805ZM43.1588 60.379C43.2281 60.379 43.2845 60.3618 43.3279 60.3275C43.372 60.2931 43.4041 60.2488 43.4242 60.1943C43.4449 60.1392 43.4553 60.0803 43.4553 60.0174C43.4553 59.952 43.4442 59.8924 43.4222 59.8386C43.4008 59.7841 43.3681 59.7407 43.324 59.7083C43.28 59.6759 43.2239 59.6597 43.1559 59.6597C43.1222 59.6597 43.0891 59.6649 43.0567 59.6753C43.0243 59.685 42.9942 59.6999 42.9664 59.72C42.9391 59.7394 42.9155 59.7637 42.8954 59.7929V60.2215C42.9148 60.2546 42.9372 60.2828 42.9625 60.3061C42.9884 60.3294 43.0175 60.3476 43.0499 60.3605C43.0823 60.3728 43.1186 60.379 43.1588 60.379ZM44.0734 60.5209C44.0157 60.5209 43.9651 60.5099 43.9217 60.4879C43.8783 60.4652 43.8443 60.4331 43.8197 60.3916C43.7957 60.3502 43.7837 60.3003 43.7837 60.2419C43.7837 60.1895 43.7931 60.1454 43.8119 60.1098C43.8307 60.0735 43.8553 60.044 43.8858 60.0213C43.9162 59.9986 43.9499 59.9811 43.9869 59.9688C44.0238 59.9559 44.0607 59.9461 44.0977 59.9397L44.3999 59.8872C44.4025 59.8217 44.3938 59.7725 44.3737 59.7394C44.3543 59.7057 44.3267 59.6831 44.2911 59.6714C44.2554 59.6597 44.2159 59.6539 44.1725 59.6539C44.1505 59.6539 44.1268 59.6555 44.1015 59.6588C44.0763 59.662 44.0494 59.6672 44.0209 59.6743C43.993 59.6808 43.9635 59.6892 43.9324 59.6996C43.9013 59.71 43.8686 59.7226 43.8343 59.7375L43.8255 59.5907C43.8488 59.581 43.8751 59.5716 43.9042 59.5625C43.934 59.5535 43.9655 59.5454 43.9985 59.5382C44.0322 59.5305 44.0666 59.5246 44.1015 59.5207C44.1365 59.5169 44.1719 59.5149 44.2075 59.5149C44.2794 59.5149 44.3413 59.5263 44.3931 59.5489C44.4456 59.5716 44.4858 59.6072 44.5137 59.6558C44.5415 59.7044 44.5555 59.7679 44.5555 59.8464C44.5555 59.8762 44.5555 59.9141 44.5555 59.9601C44.5555 60.0061 44.5555 60.0498 44.5555 60.0913V60.2167C44.5555 60.2607 44.5555 60.3058 44.5555 60.3518C44.5555 60.3971 44.5555 60.447 44.5555 60.5015H44.4097L44.4009 60.3644H44.3854C44.3653 60.3903 44.34 60.4153 44.3095 60.4393C44.2791 60.4632 44.2438 60.483 44.2036 60.4985C44.1641 60.5135 44.1207 60.5209 44.0734 60.5209ZM44.12 60.3877C44.1544 60.3877 44.1887 60.3806 44.223 60.3664C44.2574 60.3521 44.2895 60.331 44.3193 60.3032C44.3497 60.2747 44.3753 60.239 44.3961 60.1963L44.397 59.9883C44.3867 59.9941 44.3727 59.9999 44.3552 60.0058C44.3384 60.0116 44.3128 60.0184 44.2784 60.0262C44.2447 60.0333 44.1978 60.0424 44.1375 60.0534C44.1006 60.0599 44.0679 60.0706 44.0393 60.0855C44.0108 60.0997 43.9881 60.1195 43.9713 60.1448C43.9551 60.1694 43.947 60.1995 43.947 60.2351C43.947 60.2909 43.9635 60.3304 43.9966 60.3537C44.0303 60.3764 44.0714 60.3877 44.12 60.3877ZM45.1008 60.5209C45.0587 60.5209 45.0189 60.5186 44.9813 60.5141C44.9444 60.5096 44.9103 60.5037 44.8792 60.4966C44.8488 60.4888 44.8216 60.4804 44.7976 60.4713C44.7736 60.4623 44.7535 60.4535 44.7373 60.4451L44.7519 60.3003C44.7785 60.3158 44.8096 60.3297 44.8452 60.3421C44.8808 60.3537 44.9191 60.3631 44.9599 60.3702C45.0014 60.3774 45.0435 60.3809 45.0863 60.3809C45.1498 60.3809 45.1997 60.3738 45.2359 60.3596C45.2729 60.3453 45.2988 60.3265 45.3137 60.3032C45.3293 60.2799 45.337 60.2546 45.337 60.2274C45.337 60.195 45.3267 60.1674 45.3059 60.1448C45.2852 60.1214 45.257 60.1039 45.2214 60.0923C45.1857 60.0806 45.1449 60.0748 45.0989 60.0748C45.06 60.0748 45.0257 60.0748 44.9959 60.0748C44.9667 60.0748 44.9375 60.0748 44.9084 60.0748V59.9533C44.9337 59.9533 44.9596 59.9533 44.9861 59.9533C45.0134 59.9533 45.0451 59.9533 45.0814 59.9533C45.1592 59.9533 45.2162 59.9384 45.2525 59.9086C45.2894 59.8788 45.3079 59.8408 45.3079 59.7948C45.3079 59.7624 45.2985 59.7362 45.2797 59.7161C45.2609 59.6954 45.2343 59.6801 45.2 59.6704C45.1656 59.6607 45.1251 59.6558 45.0785 59.6558C45.0461 59.6558 45.0134 59.6584 44.9803 59.6636C44.9473 59.6682 44.9132 59.6763 44.8783 59.6879C44.8439 59.6989 44.8076 59.7142 44.7694 59.7336L44.7548 59.5907C44.7814 59.5778 44.8128 59.5655 44.8491 59.5538C44.886 59.5421 44.9262 59.5327 44.9696 59.5256C45.0137 59.5185 45.0587 59.5149 45.1047 59.5149C45.187 59.5149 45.2551 59.5256 45.3088 59.547C45.3633 59.5684 45.4038 59.5979 45.4303 59.6354C45.4576 59.673 45.4712 59.7158 45.4712 59.7637C45.4712 59.8285 45.454 59.8794 45.4196 59.9163C45.386 59.9533 45.3477 59.9782 45.305 59.9912V60.0067C45.3335 60.0145 45.3626 60.0271 45.3924 60.0446C45.4222 60.0621 45.4475 60.0871 45.4682 60.1195C45.489 60.1512 45.4993 60.1914 45.4993 60.24C45.4993 60.2886 45.4874 60.3343 45.4634 60.3771C45.4394 60.4198 45.3983 60.4545 45.3399 60.4811C45.2823 60.5076 45.2026 60.5209 45.1008 60.5209ZM46.1348 60.5228C46.0551 60.5228 45.9848 60.5092 45.9239 60.482C45.8636 60.4542 45.8131 60.4166 45.7723 60.3693C45.7315 60.322 45.7003 60.2679 45.679 60.207C45.6582 60.1454 45.6479 60.0809 45.6479 60.0135C45.6479 59.917 45.6673 59.8315 45.7062 59.7569C45.7457 59.6818 45.8014 59.6225 45.8734 59.5791C45.9459 59.5356 46.0321 59.5139 46.1319 59.5139C46.209 59.5139 46.2774 59.5266 46.337 59.5518C46.3966 59.5771 46.4471 59.6124 46.4886 59.6578C46.5301 59.7032 46.5615 59.7563 46.5829 59.8172C46.6043 59.8775 46.615 59.9429 46.615 60.0135C46.615 60.1088 46.5955 60.195 46.5567 60.2721C46.5178 60.3492 46.4624 60.4104 46.3904 60.4558C46.3192 60.5005 46.234 60.5228 46.1348 60.5228ZM46.1348 60.3829C46.2055 60.3829 46.2641 60.3654 46.3107 60.3304C46.3574 60.2954 46.3924 60.2497 46.4157 60.1933C46.439 60.137 46.4507 60.077 46.4507 60.0135C46.4507 59.941 46.4378 59.8778 46.4118 59.824C46.3859 59.7702 46.3493 59.7284 46.302 59.6986C46.2547 59.6688 46.1986 59.6539 46.1338 59.6539C46.0639 59.6539 46.0049 59.6698 45.9569 59.7015C45.909 59.7333 45.8727 59.7764 45.8481 59.8308C45.8241 59.8852 45.8121 59.9461 45.8121 60.0135C45.8121 60.077 45.8238 60.137 45.8471 60.1933C45.8711 60.2497 45.9071 60.2954 45.955 60.3304C46.003 60.3654 46.0629 60.3829 46.1348 60.3829ZM46.8262 60.5015C46.8262 60.4295 46.8262 60.3605 46.8262 60.2944C46.8262 60.2277 46.8262 60.1545 46.8262 60.0748V59.9776C46.8262 59.9199 46.8262 59.8668 46.8262 59.8182C46.8262 59.7696 46.8262 59.7226 46.8262 59.6772C46.8262 59.6312 46.8262 59.5846 46.8262 59.5373C46.8845 59.5373 46.9545 59.5373 47.0361 59.5373C47.1184 59.5373 47.1975 59.5373 47.2733 59.5373C47.3498 59.5373 47.411 59.5467 47.457 59.5655C47.503 59.5842 47.5361 59.6108 47.5562 59.6452C47.5769 59.6789 47.5873 59.719 47.5873 59.7657C47.5873 59.8266 47.5714 59.8755 47.5396 59.9124C47.5085 59.9494 47.47 59.975 47.424 59.9892V60.0019C47.4551 60.0077 47.4849 60.019 47.5134 60.0359C47.5425 60.0521 47.5665 60.0764 47.5853 60.1088C47.6047 60.1405 47.6145 60.183 47.6145 60.2361C47.6145 60.2867 47.6031 60.332 47.5805 60.3722C47.5584 60.4117 47.5189 60.4431 47.4619 60.4665C47.4055 60.4898 47.3251 60.5015 47.2208 60.5015C47.1424 60.5015 47.0692 60.5015 47.0012 60.5015C46.9331 60.5015 46.8748 60.5015 46.8262 60.5015ZM46.9827 60.3722H47.2072C47.2694 60.3722 47.3183 60.3664 47.354 60.3547C47.3903 60.343 47.4155 60.3259 47.4298 60.3032C47.4447 60.2805 47.4521 60.253 47.4521 60.2206C47.4521 60.1655 47.4327 60.1266 47.3938 60.1039C47.3556 60.0812 47.2995 60.0699 47.2257 60.0699H46.9399V59.9523H47.2092C47.2629 59.9523 47.3054 59.9458 47.3365 59.9329C47.3676 59.9193 47.3896 59.9011 47.4026 59.8784C47.4162 59.8551 47.423 59.8289 47.423 59.7997C47.423 59.7505 47.4068 59.7161 47.3744 59.6967C47.3426 59.6766 47.2973 59.6665 47.2383 59.6665H46.9827C46.9827 59.7184 46.9827 59.7686 46.9827 59.8172C46.9827 59.8658 46.9827 59.9186 46.9827 59.9756V60.0728C46.9827 60.1279 46.9827 60.1791 46.9827 60.2264C46.9827 60.2737 46.9827 60.3223 46.9827 60.3722ZM48.0582 60.5209C48.0005 60.5209 47.95 60.5099 47.9066 60.4879C47.8632 60.4652 47.8292 60.4331 47.8045 60.3916C47.7806 60.3502 47.7686 60.3003 47.7686 60.2419C47.7686 60.1895 47.778 60.1454 47.7968 60.1098C47.8156 60.0735 47.8402 60.044 47.8706 60.0213C47.9011 59.9986 47.9348 59.9811 47.9717 59.9688C48.0086 59.9559 48.0456 59.9461 48.0825 59.9397L48.3848 59.8872C48.3874 59.8217 48.3786 59.7725 48.3586 59.7394C48.3391 59.7057 48.3116 59.6831 48.2759 59.6714C48.2403 59.6597 48.2008 59.6539 48.1574 59.6539C48.1353 59.6539 48.1117 59.6555 48.0864 59.6588C48.0611 59.662 48.0342 59.6672 48.0057 59.6743C47.9779 59.6808 47.9484 59.6892 47.9173 59.6996C47.8862 59.71 47.8535 59.7226 47.8191 59.7375L47.8104 59.5907C47.8337 59.581 47.8599 59.5716 47.8891 59.5625C47.9189 59.5535 47.9503 59.5454 47.9834 59.5382C48.0171 59.5305 48.0514 59.5246 48.0864 59.5207C48.1214 59.5169 48.1567 59.5149 48.1924 59.5149C48.2643 59.5149 48.3262 59.5263 48.378 59.5489C48.4305 59.5716 48.4707 59.6072 48.4985 59.6558C48.5264 59.7044 48.5403 59.7679 48.5403 59.8464C48.5403 59.8762 48.5403 59.9141 48.5403 59.9601C48.5403 60.0061 48.5403 60.0498 48.5403 60.0913V60.2167C48.5403 60.2607 48.5403 60.3058 48.5403 60.3518C48.5403 60.3971 48.5403 60.447 48.5403 60.5015H48.3945L48.3858 60.3644H48.3702C48.3501 60.3903 48.3249 60.4153 48.2944 60.4393C48.264 60.4632 48.2286 60.483 48.1885 60.4985C48.1489 60.5135 48.1055 60.5209 48.0582 60.5209ZM48.1049 60.3877C48.1392 60.3877 48.1736 60.3806 48.2079 60.3664C48.2422 60.3521 48.2743 60.331 48.3041 60.3032C48.3346 60.2747 48.3602 60.239 48.3809 60.1963L48.3819 59.9883C48.3715 59.9941 48.3576 59.9999 48.3401 60.0058C48.3232 60.0116 48.2976 60.0184 48.2633 60.0262C48.2296 60.0333 48.1826 60.0424 48.1224 60.0534C48.0854 60.0599 48.0527 60.0706 48.0242 60.0855C47.9957 60.0997 47.973 60.1195 47.9562 60.1448C47.94 60.1694 47.9319 60.1995 47.9319 60.2351C47.9319 60.2909 47.9484 60.3304 47.9814 60.3537C48.0151 60.3764 48.0563 60.3877 48.1049 60.3877ZM48.7873 60.5015C48.7873 60.4295 48.7873 60.3605 48.7873 60.2944C48.7873 60.2283 48.7873 60.1554 48.7873 60.0757V59.9785C48.7873 59.9209 48.7873 59.8677 48.7873 59.8191C48.7873 59.7699 48.7873 59.7226 48.7873 59.6772C48.7873 59.6312 48.7873 59.5846 48.7873 59.5373L48.9467 59.5305C48.9467 59.5784 48.9467 59.6257 48.9467 59.6724C48.9467 59.719 48.9467 59.7673 48.9467 59.8172C48.9467 59.8664 48.9467 59.9202 48.9467 59.9785V60.0757C48.9467 60.1554 48.9467 60.2283 48.9467 60.2944C48.9467 60.3605 48.9467 60.4295 48.9467 60.5015H48.7873ZM48.8826 60.0796V59.9494H49.5017V60.0796H48.8826ZM49.4298 60.5015C49.4298 60.4295 49.4298 60.3605 49.4298 60.2944C49.4298 60.2283 49.4298 60.1554 49.4298 60.0757V59.9785C49.4298 59.9209 49.4298 59.8677 49.4298 59.8191C49.4298 59.7699 49.4298 59.7226 49.4298 59.6772C49.4298 59.6312 49.4298 59.5846 49.4298 59.5373H49.5892C49.5892 59.5846 49.5892 59.6312 49.5892 59.6772C49.5892 59.7226 49.5892 59.7699 49.5892 59.8191C49.5892 59.8677 49.5892 59.9209 49.5892 59.9785V60.0757C49.5892 60.1554 49.5892 60.2283 49.5892 60.2944C49.5892 60.3605 49.5892 60.4295 49.5892 60.5015H49.4298ZM49.8552 60.5015C49.8552 60.4295 49.8552 60.3605 49.8552 60.2944C49.8552 60.2283 49.8552 60.1554 49.8552 60.0757V59.9785C49.8552 59.9209 49.8552 59.8677 49.8552 59.8191C49.8552 59.7699 49.8552 59.7226 49.8552 59.6772C49.8552 59.6312 49.8552 59.5846 49.8552 59.5373L50.0107 59.5314C50.0107 59.5774 50.0107 59.6228 50.0107 59.6675C50.0107 59.7122 50.0107 59.7586 50.0107 59.8065C50.0107 59.8538 50.0107 59.9053 50.0107 59.961V60.2682H50.0243L50.2313 59.9484C50.2761 59.8797 50.3208 59.8107 50.3655 59.7414C50.4102 59.672 50.4546 59.604 50.4986 59.5373H50.6648C50.6648 59.5846 50.6648 59.6312 50.6648 59.6772C50.6648 59.7226 50.6648 59.7699 50.6648 59.8191C50.6648 59.8677 50.6648 59.9209 50.6648 59.9785V60.0757C50.6648 60.1554 50.6648 60.2283 50.6648 60.2944C50.6648 60.3605 50.6648 60.4295 50.6648 60.5015H50.5103C50.5103 60.4308 50.5103 60.3628 50.5103 60.2974C50.5103 60.2313 50.5103 60.159 50.5103 60.0806V59.7696H50.4967L50.2916 60.0855C50.2462 60.1554 50.2012 60.2251 50.1565 60.2944C50.1118 60.3638 50.0671 60.4328 50.0224 60.5015H49.8552ZM51.3807 60.5228C51.2653 60.5228 51.1704 60.5008 51.0959 60.4568C51.0214 60.4127 50.966 60.3524 50.9297 60.276C50.8934 60.1995 50.8753 60.112 50.8753 60.0135C50.8753 59.9163 50.8931 59.8302 50.9287 59.755C50.9644 59.6798 51.0155 59.6212 51.0823 59.5791C51.149 59.5363 51.2287 59.5149 51.3214 59.5149C51.403 59.5149 51.473 59.5308 51.5313 59.5625C51.5903 59.5943 51.6357 59.6409 51.6674 59.7025C51.6992 59.7634 51.715 59.8389 51.715 59.929C51.715 59.9529 51.7144 59.9747 51.7131 59.9941C51.7124 60.0129 51.7105 60.032 51.7073 60.0514L51.5663 59.9805C51.5676 59.9701 51.5683 59.9604 51.5683 59.9513C51.5689 59.9416 51.5692 59.9322 51.5692 59.9231C51.5692 59.8318 51.5466 59.7624 51.5012 59.7151C51.4558 59.6672 51.3966 59.6432 51.3233 59.6432C51.2644 59.6432 51.2135 59.6584 51.1707 59.6889C51.1286 59.7187 51.0959 59.7602 51.0726 59.8133C51.0492 59.8664 51.0376 59.927 51.0376 59.9951V60.0174C51.0376 60.0926 51.0505 60.1574 51.0765 60.2118C51.1024 60.2662 51.1416 60.3084 51.1941 60.3382C51.2472 60.3673 51.3146 60.3819 51.3962 60.3819C51.4267 60.3819 51.4588 60.3796 51.4925 60.3751C51.5268 60.3699 51.5605 60.3621 51.5935 60.3518C51.6272 60.3414 51.6593 60.3278 51.6898 60.311L51.6966 60.4558C51.6719 60.4694 51.6434 60.4814 51.611 60.4917C51.5786 60.5015 51.543 60.5089 51.5041 60.5141C51.4652 60.5199 51.4241 60.5228 51.3807 60.5228ZM50.9423 60.0514V59.9367L51.6091 59.9309L51.7073 59.9679V60.0514H50.9423ZM52.2501 60.8805C52.2501 60.8093 52.2501 60.7393 52.2501 60.6706C52.2501 60.6026 52.2501 60.5287 52.2501 60.449V59.9785C52.2501 59.9073 52.2501 59.8344 52.2501 59.7598C52.2501 59.6853 52.2501 59.6111 52.2501 59.5373L52.3959 59.5275L52.3998 59.6529H52.4163C52.4358 59.6277 52.4604 59.6047 52.4902 59.5839C52.52 59.5625 52.554 59.5457 52.5922 59.5334C52.6311 59.5204 52.6736 59.5139 52.7196 59.5139C52.8077 59.5139 52.8825 59.536 52.9441 59.58C53.0063 59.6234 53.0536 59.6831 53.086 59.7589C53.1184 59.8347 53.1346 59.9205 53.1346 60.0165C53.1346 60.1065 53.1194 60.1901 53.0889 60.2672C53.0591 60.3437 53.0134 60.4056 52.9519 60.4529C52.891 60.4995 52.8145 60.5228 52.7225 60.5228C52.6797 60.5228 52.6402 60.517 52.6039 60.5054C52.5676 60.4943 52.5346 60.4785 52.5048 60.4577C52.4756 60.4363 52.449 60.4104 52.4251 60.38H52.4105V60.4558C52.4105 60.5316 52.4105 60.6022 52.4105 60.6677C52.4105 60.7338 52.4105 60.8028 52.4105 60.8747L52.2501 60.8805ZM52.6739 60.379C52.7432 60.379 52.7996 60.3618 52.843 60.3275C52.8871 60.2931 52.9192 60.2488 52.9392 60.1943C52.96 60.1392 52.9703 60.0803 52.9703 60.0174C52.9703 59.952 52.9593 59.8924 52.9373 59.8386C52.9159 59.7841 52.8832 59.7407 52.8391 59.7083C52.7951 59.6759 52.739 59.6597 52.671 59.6597C52.6373 59.6597 52.6042 59.6649 52.5718 59.6753C52.5394 59.685 52.5093 59.6999 52.4814 59.72C52.4542 59.7394 52.4306 59.7637 52.4105 59.7929V60.2215C52.4299 60.2546 52.4523 60.2828 52.4776 60.3061C52.5035 60.3294 52.5326 60.3476 52.565 60.3605C52.5974 60.3728 52.6337 60.379 52.6739 60.379ZM53.7984 60.5228C53.683 60.5228 53.5881 60.5008 53.5136 60.4568C53.4391 60.4127 53.3837 60.3524 53.3474 60.276C53.3111 60.1995 53.293 60.112 53.293 60.0135C53.293 59.9163 53.3108 59.8302 53.3464 59.755C53.3821 59.6798 53.4333 59.6212 53.5 59.5791C53.5667 59.5363 53.6464 59.5149 53.7391 59.5149C53.8207 59.5149 53.8907 59.5308 53.949 59.5625C54.008 59.5943 54.0534 59.6409 54.0851 59.7025C54.1169 59.7634 54.1327 59.8389 54.1327 59.929C54.1327 59.9529 54.1321 59.9747 54.1308 59.9941C54.1302 60.0129 54.1282 60.032 54.125 60.0514L53.984 59.9805C53.9853 59.9701 53.986 59.9604 53.986 59.9513C53.9866 59.9416 53.987 59.9322 53.987 59.9231C53.987 59.8318 53.9643 59.7624 53.9189 59.7151C53.8736 59.6672 53.8143 59.6432 53.741 59.6432C53.6821 59.6432 53.6312 59.6584 53.5884 59.6889C53.5463 59.7187 53.5136 59.7602 53.4903 59.8133C53.4669 59.8664 53.4553 59.927 53.4553 59.9951V60.0174C53.4553 60.0926 53.4682 60.1574 53.4942 60.2118C53.5201 60.2662 53.5593 60.3084 53.6118 60.3382C53.6649 60.3673 53.7323 60.3819 53.8139 60.3819C53.8444 60.3819 53.8765 60.3796 53.9102 60.3751C53.9445 60.3699 53.9782 60.3621 54.0113 60.3518C54.0449 60.3414 54.077 60.3278 54.1075 60.311L54.1143 60.4558C54.0897 60.4694 54.0611 60.4814 54.0287 60.4917C53.9963 60.5015 53.9607 60.5089 53.9218 60.5141C53.883 60.5199 53.8418 60.5228 53.7984 60.5228ZM53.36 60.0514V59.9367L54.0268 59.9309L54.125 59.9679V60.0514H53.36ZM54.3346 60.5015C54.3346 60.4295 54.3346 60.3605 54.3346 60.2944C54.3346 60.2283 54.3346 60.1554 54.3346 60.0757V59.9785C54.3346 59.9209 54.3346 59.8677 54.3346 59.8191C54.3346 59.7699 54.3346 59.7226 54.3346 59.6772C54.3346 59.6312 54.3346 59.5846 54.3346 59.5373L54.494 59.5305C54.494 59.5784 54.494 59.6257 54.494 59.6724C54.494 59.719 54.494 59.7673 54.494 59.8172C54.494 59.8664 54.494 59.9202 54.494 59.9785V60.0757C54.494 60.1554 54.494 60.2283 54.494 60.2944C54.494 60.3605 54.494 60.4295 54.494 60.5015H54.3346ZM54.4299 60.0796V59.9494H55.049V60.0796H54.4299ZM54.9771 60.5015C54.9771 60.4295 54.9771 60.3605 54.9771 60.2944C54.9771 60.2283 54.9771 60.1554 54.9771 60.0757V59.9785C54.9771 59.9209 54.9771 59.8677 54.9771 59.8191C54.9771 59.7699 54.9771 59.7226 54.9771 59.6772C54.9771 59.6312 54.9771 59.5846 54.9771 59.5373H55.1365C55.1365 59.5846 55.1365 59.6312 55.1365 59.6772C55.1365 59.7226 55.1365 59.7699 55.1365 59.8191C55.1365 59.8677 55.1365 59.9209 55.1365 59.9785V60.0757C55.1365 60.1554 55.1365 60.2283 55.1365 60.2944C55.1365 60.3605 55.1365 60.4295 55.1365 60.5015H54.9771ZM55.834 60.5228C55.7543 60.5228 55.684 60.5092 55.6231 60.482C55.5629 60.4542 55.5123 60.4166 55.4715 60.3693C55.4307 60.322 55.3996 60.2679 55.3782 60.207C55.3575 60.1454 55.3471 60.0809 55.3471 60.0135C55.3471 59.917 55.3665 59.8315 55.4054 59.7569C55.4449 59.6818 55.5007 59.6225 55.5726 59.5791C55.6452 59.5356 55.7313 59.5139 55.8311 59.5139C55.9082 59.5139 55.9766 59.5266 56.0362 59.5518C56.0958 59.5771 56.1464 59.6124 56.1878 59.6578C56.2293 59.7032 56.2607 59.7563 56.2821 59.8172C56.3035 59.8775 56.3142 59.9429 56.3142 60.0135C56.3142 60.1088 56.2948 60.195 56.2559 60.2721C56.217 60.3492 56.1616 60.4104 56.0897 60.4558C56.0184 60.5005 55.9332 60.5228 55.834 60.5228ZM55.834 60.3829C55.9047 60.3829 55.9633 60.3654 56.01 60.3304C56.0566 60.2954 56.0916 60.2497 56.1149 60.1933C56.1383 60.137 56.1499 60.077 56.1499 60.0135C56.1499 59.941 56.137 59.8778 56.1111 59.824C56.0851 59.7702 56.0485 59.7284 56.0012 59.6986C55.9539 59.6688 55.8979 59.6539 55.8331 59.6539C55.7631 59.6539 55.7041 59.6698 55.6562 59.7015C55.6082 59.7333 55.5719 59.7764 55.5473 59.8308C55.5233 59.8852 55.5114 59.9461 55.5114 60.0135C55.5114 60.077 55.523 60.137 55.5463 60.1933C55.5703 60.2497 55.6063 60.2954 55.6542 60.3304C55.7022 60.3654 55.7621 60.3829 55.834 60.3829ZM56.5254 60.5015C56.5254 60.4295 56.5254 60.3605 56.5254 60.2944C56.5254 60.2277 56.5254 60.1545 56.5254 60.0748V59.9776C56.5254 59.9199 56.5254 59.8668 56.5254 59.8182C56.5254 59.7696 56.5254 59.7226 56.5254 59.6772C56.5254 59.6312 56.5254 59.5846 56.5254 59.5373C56.5837 59.5373 56.6537 59.5373 56.7354 59.5373C56.8177 59.5373 56.8967 59.5373 56.9725 59.5373C57.049 59.5373 57.1102 59.5467 57.1562 59.5655C57.2022 59.5842 57.2353 59.6108 57.2554 59.6452C57.2761 59.6789 57.2865 59.719 57.2865 59.7657C57.2865 59.8266 57.2706 59.8755 57.2389 59.9124C57.2078 59.9494 57.1692 59.975 57.1232 59.9892V60.0019C57.1543 60.0077 57.1841 60.019 57.2126 60.0359C57.2418 60.0521 57.2657 60.0764 57.2845 60.1088C57.304 60.1405 57.3137 60.183 57.3137 60.2361C57.3137 60.2867 57.3024 60.332 57.2797 60.3722C57.2576 60.4117 57.2181 60.4431 57.1611 60.4665C57.1047 60.4898 57.0244 60.5015 56.92 60.5015C56.8416 60.5015 56.7684 60.5015 56.7004 60.5015C56.6323 60.5015 56.574 60.5015 56.5254 60.5015ZM56.6819 60.3722H56.9064C56.9686 60.3722 57.0176 60.3664 57.0532 60.3547C57.0895 60.343 57.1148 60.3259 57.129 60.3032C57.1439 60.2805 57.1514 60.253 57.1514 60.2206C57.1514 60.1655 57.1319 60.1266 57.0931 60.1039C57.0548 60.0812 56.9988 60.0699 56.9249 60.0699H56.6391V59.9523H56.9084C56.9622 59.9523 57.0046 59.9458 57.0357 59.9329C57.0668 59.9193 57.0888 59.9011 57.1018 59.8784C57.1154 59.8551 57.1222 59.8289 57.1222 59.7997C57.1222 59.7505 57.106 59.7161 57.0736 59.6967C57.0419 59.6766 56.9965 59.6665 56.9375 59.6665H56.6819C56.6819 59.7184 56.6819 59.7686 56.6819 59.8172C56.6819 59.8658 56.6819 59.9186 56.6819 59.9756V60.0728C56.6819 60.1279 56.6819 60.1791 56.6819 60.2264C56.6819 60.2737 56.6819 60.3223 56.6819 60.3722ZM57.7574 60.5209C57.6998 60.5209 57.6492 60.5099 57.6058 60.4879C57.5624 60.4652 57.5284 60.4331 57.5038 60.3916C57.4798 60.3502 57.4678 60.3003 57.4678 60.2419C57.4678 60.1895 57.4772 60.1454 57.496 60.1098C57.5148 60.0735 57.5394 60.044 57.5699 60.0213C57.6003 59.9986 57.634 59.9811 57.6709 59.9688C57.7079 59.9559 57.7448 59.9461 57.7817 59.9397L58.084 59.8872C58.0866 59.8217 58.0779 59.7725 58.0578 59.7394C58.0384 59.7057 58.0108 59.6831 57.9752 59.6714C57.9395 59.6597 57.9 59.6539 57.8566 59.6539C57.8346 59.6539 57.8109 59.6555 57.7856 59.6588C57.7604 59.662 57.7335 59.6672 57.705 59.6743C57.6771 59.6808 57.6476 59.6892 57.6165 59.6996C57.5854 59.71 57.5527 59.7226 57.5183 59.7375L57.5096 59.5907C57.5329 59.581 57.5592 59.5716 57.5883 59.5625C57.6181 59.5535 57.6496 59.5454 57.6826 59.5382C57.7163 59.5305 57.7506 59.5246 57.7856 59.5207C57.8206 59.5169 57.8559 59.5149 57.8916 59.5149C57.9635 59.5149 58.0254 59.5263 58.0772 59.5489C58.1297 59.5716 58.1699 59.6072 58.1978 59.6558C58.2256 59.7044 58.2395 59.7679 58.2395 59.8464C58.2395 59.8762 58.2395 59.9141 58.2395 59.9601C58.2395 60.0061 58.2395 60.0498 58.2395 60.0913V60.2167C58.2395 60.2607 58.2395 60.3058 58.2395 60.3518C58.2395 60.3971 58.2395 60.447 58.2395 60.5015H58.0938L58.085 60.3644H58.0695C58.0494 60.3903 58.0241 60.4153 57.9936 60.4393C57.9632 60.4632 57.9279 60.483 57.8877 60.4985C57.8482 60.5135 57.8048 60.5209 57.7574 60.5209ZM57.8041 60.3877C57.8384 60.3877 57.8728 60.3806 57.9071 60.3664C57.9415 60.3521 57.9736 60.331 58.0034 60.3032C58.0338 60.2747 58.0594 60.239 58.0801 60.1963L58.0811 59.9883C58.0707 59.9941 58.0568 59.9999 58.0393 60.0058C58.0225 60.0116 57.9969 60.0184 57.9625 60.0262C57.9288 60.0333 57.8819 60.0424 57.8216 60.0534C57.7847 60.0599 57.7519 60.0706 57.7234 60.0855C57.6949 60.0997 57.6722 60.1195 57.6554 60.1448C57.6392 60.1694 57.6311 60.1995 57.6311 60.2351C57.6311 60.2909 57.6476 60.3304 57.6807 60.3537C57.7144 60.3764 57.7555 60.3877 57.8041 60.3877ZM59.2874 60.7697L59.2797 60.4801L59.3156 60.5015H58.4865C58.4865 60.4295 58.4865 60.3605 58.4865 60.2944C58.4865 60.2283 58.4865 60.1554 58.4865 60.0757V59.9785C58.4865 59.9209 58.4865 59.8677 58.4865 59.8191C58.4865 59.7699 58.4865 59.7226 58.4865 59.6772C58.4865 59.6312 58.4865 59.5846 58.4865 59.5373L58.6469 59.5305C58.6469 59.5784 58.6469 59.6257 58.6469 59.6724C58.6469 59.719 58.6469 59.7673 58.6469 59.8172C58.6469 59.8664 58.6469 59.9202 58.6469 59.9785V60.0757C58.6469 60.1282 58.6469 60.1765 58.6469 60.2206C58.6469 60.2646 58.6469 60.3071 58.6469 60.3479C58.6469 60.3887 58.6469 60.4315 58.6469 60.4762L58.5497 60.3693H59.0065C59.0739 60.3693 59.1436 60.3693 59.2155 60.3693C59.2874 60.3693 59.3584 60.3693 59.4284 60.3693C59.4284 60.403 59.4284 60.4376 59.4284 60.4733C59.4284 60.5083 59.4284 60.5423 59.4284 60.5753C59.4284 60.6077 59.4284 60.6401 59.4284 60.6725C59.4284 60.7049 59.4284 60.7373 59.4284 60.7697H59.2874ZM59.1203 60.4762C59.1203 60.4315 59.1203 60.3887 59.1203 60.3479C59.1203 60.3071 59.1203 60.2646 59.1203 60.2206C59.1203 60.1765 59.1203 60.1282 59.1203 60.0757V59.9785C59.1203 59.9209 59.1203 59.8677 59.1203 59.8191C59.1203 59.7699 59.1203 59.7226 59.1203 59.6772C59.1203 59.6312 59.1203 59.5846 59.1203 59.5373H59.2806C59.2806 59.5846 59.2806 59.6312 59.2806 59.6772C59.2806 59.7226 59.2806 59.7699 59.2806 59.8191C59.2806 59.8677 59.2806 59.9209 59.2806 59.9785V60.0757C59.2806 60.1282 59.2806 60.1765 59.2806 60.2206C59.2806 60.2646 59.2806 60.3071 59.2806 60.3479C59.2806 60.3887 59.2806 60.4315 59.2806 60.4762H59.1203ZM59.5772 60.5015C59.5772 60.4295 59.5772 60.3605 59.5772 60.2944C59.5772 60.2283 59.5772 60.1554 59.5772 60.0757V59.9785C59.5772 59.9209 59.5772 59.8677 59.5772 59.8191C59.5772 59.7699 59.5772 59.7226 59.5772 59.6772C59.5772 59.6312 59.5772 59.5846 59.5772 59.5373L59.7327 59.5314C59.7327 59.5774 59.7327 59.6228 59.7327 59.6675C59.7327 59.7122 59.7327 59.7586 59.7327 59.8065C59.7327 59.8538 59.7327 59.9053 59.7327 59.961V60.2682H59.7463L59.9533 59.9484C59.9981 59.8797 60.0428 59.8107 60.0875 59.7414C60.1322 59.672 60.1766 59.604 60.2206 59.5373H60.3868C60.3868 59.5846 60.3868 59.6312 60.3868 59.6772C60.3868 59.7226 60.3868 59.7699 60.3868 59.8191C60.3868 59.8677 60.3868 59.9209 60.3868 59.9785V60.0757C60.3868 60.1554 60.3868 60.2283 60.3868 60.2944C60.3868 60.3605 60.3868 60.4295 60.3868 60.5015H60.2323C60.2323 60.4308 60.2323 60.3628 60.2323 60.2974C60.2323 60.2313 60.2323 60.159 60.2323 60.0806V59.7696H60.2187L60.0136 60.0855C59.9683 60.1554 59.9232 60.2251 59.8785 60.2944C59.8338 60.3638 59.7891 60.4328 59.7444 60.5015H59.5772ZM60.5701 60.5015C60.605 60.4548 60.6397 60.4082 60.6741 60.3615C60.7084 60.3142 60.7424 60.2682 60.7761 60.2235L60.918 60.031L60.9452 60.1059C60.8616 60.1059 60.7949 60.0942 60.745 60.0709C60.6951 60.0469 60.6591 60.0139 60.6371 59.9717C60.6151 59.9296 60.6041 59.8813 60.6041 59.8269C60.6041 59.7589 60.6183 59.7038 60.6468 59.6617C60.6753 59.6189 60.7175 59.5875 60.7732 59.5674C60.8289 59.5473 60.8979 59.5373 60.9802 59.5373C61.0262 59.5373 61.0735 59.5373 61.1221 59.5373C61.1707 59.5373 61.2167 59.5373 61.2602 59.5373C61.3036 59.5373 61.3399 59.5373 61.369 59.5373C61.369 59.5846 61.369 59.6312 61.369 59.6772C61.369 59.7226 61.369 59.7699 61.369 59.8191C61.369 59.8677 61.369 59.9209 61.369 59.9785V60.0757C61.369 60.1554 61.369 60.2283 61.369 60.2944C61.369 60.3605 61.369 60.4295 61.369 60.5015H61.2125C61.2125 60.4593 61.2125 60.4185 61.2125 60.379C61.2125 60.3395 61.2125 60.299 61.2125 60.2575C61.2125 60.2154 61.2125 60.1713 61.2125 60.1253V59.9785C61.2125 59.9215 61.2125 59.8681 61.2125 59.8182C61.2125 59.7676 61.2125 59.7171 61.2125 59.6665H60.9938C60.9588 59.6665 60.9238 59.6708 60.8889 59.6792C60.8539 59.6876 60.8247 59.7048 60.8014 59.7307C60.7781 59.756 60.7664 59.7942 60.7664 59.8454C60.7664 59.8869 60.7745 59.9193 60.7907 59.9426C60.8069 59.9653 60.8273 59.9818 60.8519 59.9922C60.8772 60.0019 60.9034 60.008 60.9307 60.0106C60.9585 60.0132 60.9838 60.0145 61.0065 60.0145H61.2397V60.1311H60.9783L61.0658 60.068L60.9433 60.2371C60.9115 60.2812 60.8798 60.3255 60.848 60.3702C60.8163 60.4143 60.7845 60.4581 60.7528 60.5015H60.5701Z" fill="#481E06"/>
</svg>
