<svg width="47" height="47" viewBox="0 0 47 47" fill="none" xmlns="http://www.w3.org/2000/svg">
<path fill-rule="evenodd" clip-rule="evenodd" d="M23.3204 0C10.6102 0 0.271484 10.3416 0.271484 23.0553C0.271484 28.0975 1.89752 32.7735 4.66165 36.569L1.78891 45.1349L10.6508 42.3027C14.2956 44.7153 18.6452 46.1111 23.3337 46.1111C36.0438 46.1111 46.3826 35.7691 46.3826 23.0558C46.3826 10.342 36.0438 0.000381116 23.3337 0.000381116L23.3204 0ZM16.8838 11.7111C16.4368 10.6404 16.098 10.5999 15.4207 10.5723C15.1901 10.5589 14.9331 10.5456 14.6482 10.5456C13.7671 10.5456 12.8459 10.803 12.2902 11.3722C11.6129 12.0634 9.93255 13.6761 9.93255 16.9835C9.93255 20.2908 12.3445 23.4895 12.6696 23.9371C13.0084 24.3839 17.3718 31.2694 24.1467 34.0756C29.4448 36.2713 31.0169 36.0678 32.2227 35.8104C33.9841 35.4309 36.193 34.1292 36.7487 32.5574C37.3043 30.9848 37.3043 29.6429 37.1414 29.3583C36.9789 29.0737 36.5314 28.9115 35.8542 28.5722C35.1769 28.2333 31.8839 26.6067 31.2605 26.3899C30.6506 26.1596 30.0682 26.241 29.6077 26.8917C28.9572 27.7999 28.3205 28.7218 27.8054 29.2772C27.3989 29.711 26.7346 29.7653 26.1793 29.5346C25.434 29.2232 23.3475 28.4907 20.7727 26.2001C18.7807 24.4248 17.4257 22.2157 17.033 21.5516C16.6399 20.8742 16.9924 20.4806 17.3037 20.1149C17.6425 19.6945 17.9676 19.3965 18.3064 19.0032C18.6453 18.6104 18.835 18.4069 19.0518 17.9459C19.2824 17.4988 19.1195 17.0378 18.9569 16.6989C18.7944 16.36 17.4395 13.0526 16.8838 11.7111Z" fill="#B18C76"/>
</svg>
